<?xml version="1.0" encoding="UTF-8" standalone="no"?>
<!-- Created with Inkscape (http://www.inkscape.org/) -->

<svg
   xmlns:dc="http://purl.org/dc/elements/1.1/"
   xmlns:cc="http://creativecommons.org/ns#"
   xmlns:rdf="http://www.w3.org/1999/02/22-rdf-syntax-ns#"
   xmlns:svg="http://www.w3.org/2000/svg"
   xmlns="http://www.w3.org/2000/svg"
   xmlns:sodipodi="http://sodipodi.sourceforge.net/DTD/sodipodi-0.dtd"
   xmlns:inkscape="http://www.inkscape.org/namespaces/inkscape"
   width="9.2981815mm"
   height="8.5248375mm"
   viewBox="0 0 9.2981821 8.5248369"
   version="1.1"
   id="svg5889"
   inkscape:version="0.92.3 (2405546, 2018-03-11)"
   sodipodi:docname="chicken.svg">
  <defs
     id="defs5883" />
  <sodipodi:namedview
     id="base"
     pagecolor="#ffffff"
     bordercolor="#666666"
     borderopacity="1.0"
     inkscape:pageopacity="0.0"
     inkscape:pageshadow="2"
     inkscape:zoom="3.06"
     inkscape:cx="83.233508"
     inkscape:cy="5.3618057"
     inkscape:document-units="mm"
     inkscape:current-layer="layer1"
     showgrid="false"
     fit-margin-top="1"
     fit-margin-bottom="1"
     fit-margin-right="1"
     fit-margin-left="1"
     inkscape:window-width="1853"
     inkscape:window-height="1025"
     inkscape:window-x="67"
     inkscape:window-y="27"
     inkscape:window-maximized="1" />
  <metadata
     id="metadata5886">
    <rdf:RDF>
      <cc:Work
         rdf:about="">
        <dc:format>image/svg+xml</dc:format>
        <dc:type
           rdf:resource="http://purl.org/dc/dcmitype/StillImage" />
        <dc:title></dc:title>
      </cc:Work>
    </rdf:RDF>
  </metadata>
  <g
     inkscape:label="Capa 1"
     inkscape:groupmode="layer"
     id="layer1"
     transform="translate(-83.811136,-114.35645)">
    <g
       transform="matrix(0.35277777,0,0,-0.35277777,7.9477746,209.33504)"
       id="g9933">
      <g
         transform="translate(219.5845,250.6392)"
         id="g1854">
        <path
           inkscape:connector-curvature="0"
           id="path1856"
           style="fill:#d4a392;fill-opacity:1;fill-rule:nonzero;stroke:none"
           d="M 0,0 C -0.217,0.516 -1.107,-0.179 -1.627,0.589 -1.278,-0.783 -0.382,-0.245 0.048,-0.396 0.065,-0.269 0.059,-0.138 0,0" />
      </g>
      <g
         transform="translate(224.3188,253.7085)"
         id="g1858">
        <path
           inkscape:connector-curvature="0"
           id="path1860"
           style="fill:#d4a392;fill-opacity:1;fill-rule:nonzero;stroke:none"
           d="m 0,0 c -0.005,-0.665 -0.678,-1.48 -1.125,-1.719 -0.675,-0.36 -1.169,-0.945 -1.303,-1.8 -0.136,-0.855 -0.676,-2.206 -1.757,-1.531 -0.185,0.117 -0.319,0.224 -0.42,0.33 -0.018,-0.272 0.103,-0.557 0.659,-0.905 1.081,-0.676 1.621,0.675 1.755,1.53 0.136,0.854 0.63,1.44 1.305,1.799 C -0.292,-1.98 0.697,-0.646 0,0" />
      </g>
      <g
         transform="translate(220.1338,248.6582)"
         id="g1862">
        <path
           inkscape:connector-curvature="0"
           id="path1864"
           style="fill:#f8ddc6;fill-opacity:1;fill-rule:nonzero;stroke:none"
           d="M 0,0 C 1.081,-0.675 1.621,0.677 1.757,1.531 1.891,2.386 2.385,2.971 3.06,3.332 3.507,3.57 4.18,4.386 4.185,5.05 4.089,5.14 3.961,5.216 3.795,5.275 2.426,5.757 2.187,5.075 1.636,4.599 1.636,4.599 1.14,3.835 0.059,3.925 -1.02,4.015 -2.594,4.33 -2.188,2.62 -2.186,2.603 -2.182,2.587 -2.177,2.57 -1.656,1.802 -0.767,2.497 -0.549,1.981 -0.49,1.843 -0.484,1.712 -0.501,1.585 -0.418,1.558 -0.351,1.503 -0.311,1.404 -0.141,1.005 -0.398,0.681 -0.42,0.33 -0.319,0.225 -0.185,0.117 0,0" />
      </g>
      <g
         transform="translate(236.9116,263.9165)"
         id="g1866">
        <path
           inkscape:connector-curvature="0"
           id="path1868"
           style="fill:#cd6f28;fill-opacity:1;fill-rule:nonzero;stroke:none"
           d="m 0,0 c -0.349,0.409 -0.697,0.757 -1.045,1.055 0.026,-0.031 0.055,-0.06 0.081,-0.09 4.417,-5.558 -1.162,-9.094 -3.277,-9.533 -2.133,-0.443 -3.347,-0.329 -5.788,-2.434 -1.89,-1.63 -3.334,-0.832 -3.888,-0.39 0.176,-0.212 0.411,-0.461 0.715,-0.736 0,0 1.695,-1.943 4.137,0.162 2.441,2.105 3.655,1.991 5.787,2.433 C -1.162,-9.094 4.417,-5.558 0,0" />
      </g>
      <g
         transform="translate(226.8828,252.9146)"
         id="g1870">
        <path
           inkscape:connector-curvature="0"
           id="path1872"
           style="fill:#ed9321;fill-opacity:1;fill-rule:nonzero;stroke:none"
           d="m 0,0 c 2.44,2.105 3.655,1.991 5.788,2.434 2.114,0.439 7.694,3.975 3.277,9.533 -0.026,0.03 -0.055,0.059 -0.081,0.09 C 4.751,15.689 0.815,11.446 0.044,9.605 -0.795,7.596 -0.916,6.382 -3.45,4.387 -5.981,2.393 -4.397,0.358 -4.397,0.358 c 0,0 0.119,-0.285 0.509,-0.748 C -3.334,-0.833 -1.891,-1.63 0,0" />
      </g>
      <g
         transform="translate(228.8652,263.6597)"
         id="g1874">
        <path
           inkscape:connector-curvature="0"
           id="path1876"
           style="fill:#f6ba18;fill-opacity:1;fill-rule:nonzero;stroke:none"
           d="M 0,0 C -0.655,-0.777 -0.769,-1.76 -0.253,-2.196 0.263,-2.631 1.213,-2.355 1.87,-1.579 2.525,-0.802 2.639,0.181 2.124,0.616 1.607,1.052 0.658,0.776 0,0" />
      </g>
    </g>
  </g>
</svg>
