<?xml version="1.0" ?><svg style="enable-background:new 0 0 32 32;" version="1.1" viewBox="0 0 32 32" xml:space="preserve" xmlns="http://www.w3.org/2000/svg" xmlns:xlink="http://www.w3.org/1999/xlink"><style type="text/css">
	.st0{fill:#B9F3F8;}
	.st1{fill:#55C1FA;}
	.st2{fill:#FBC34E;}
	.st3{opacity:0.05;}
	.st4{fill:#FFFFFF;}
	.st5{fill:#7A442A;}
	.st6{fill:#C77C58;}
	.st7{fill:#E4EDF2;}
	.st8{fill:#F25949;}
	.st9{fill:#FA9B55;}
	.st10{fill:#E5A533;}
	.st11{fill:#6FA7AB;}
	.st12{fill:#20A56C;}
	.st13{fill:#F2C09E;}
	.st14{fill:#F4E8D0;}
	.st15{fill:#F2AB38;}
	.st16{fill:#393B3D;}
	.st17{fill:#ACE4E5;}
	.st18{fill:#659899;}
	.st19{fill:#E3FAFC;}
	.st20{fill:#DDF1F2;}
	.st21{fill:#16F293;}
	.st22{fill:#5C3320;}
	.st23{fill:#AD410D;}
	.st24{fill:#8B9CA5;}
	.st25{fill:#B26C50;}
	.st26{fill:#DAE1E5;}
	.st27{fill:#425158;}
	.st28{fill:#829299;}
	.st29{fill:#A5795C;}
	.st30{fill:#7A7468;}
	.st31{fill:#7B3ABF;}
	.st32{fill:#B564FF;}
	.st33{fill:#2B617D;}
</style><g id="Magnifier"/><g id="Gear"/><g id="Home"/><g id="Shield"/><g id="Star"/><g id="Flash"/><g id="Heart"/><g id="Hearts"/><g id="Shopping_Bag"/><g id="Token"/><g id="Warning"/><g id="Warning_B"/><g id="Chat"/><g id="Diamond"/><g id="Hanger"/><g id="Warning_C"/><g id="Potion"/><g id="Hourglass"/><g id="Trophy"/><g id="Bomb"/><g id="Gem"/><g id="Spell_Book"/><g id="User"/><g id="Users"/><g id="Treasure_Chest"/><g id="Treasure_Chest_Open"/><g id="Sack"/><g id="Fishing_Pin"/><g id="Sword"/><g id="Sword_And_Shield"/><g id="Backpack"/><g id="Key"/><g id="Meat"/><g id="Skull"/><g id="Store"/><g id="Helmet"/><g id="Anvil"/><g id="Axe"/><g id="Spear"/><g id="Food"/><g id="Bow"/><g id="Scroll"/><g id="Armor"/><g id="Hat"/><g id="Wand"/><g id="Map"/><g id="Mushroom"><g><path class="st14" d="M21.945,17.923c-1.932,0.243-3.879,0.365-5.828,0.365c-2.017,0-4.035-0.13-6.04-0.392    c-0.343-0.038-0.684-0.099-1.027-0.152l-0.866,7.143c-0.172,1.856,0.809,3.595,2.33,4.135c1.827,0.65,3.667,0.977,5.507,0.977    c1.839,0,3.678-0.326,5.504-0.977c1.536-0.544,2.517-2.29,2.328-4.18l-0.904-7.054C22.614,17.837,22.28,17.884,21.945,17.923z"/><path class="st29" d="M29.233,12.529c-0.197-0.831-0.462-1.627-0.787-2.361C26.275,5.227,21.38,2.021,15.974,2    c-0.018,0-0.034,0-0.052,0C10.506,2,5.638,5.209,3.515,10.177c-0.314,0.713-0.569,1.485-0.76,2.303    c-0.229,1.012-0.048,2.054,0.51,2.935c0.559,0.883,1.428,1.494,2.421,1.716c0.799,0.352,1.42-0.181,1.864-0.8    c0.123,0.551,0.319,1.222,0.96,1.333c0.522,0.077,1.045,0.169,1.567,0.233c2.005,0.262,4.023,0.392,6.04,0.392    c1.949,0,3.896-0.122,5.828-0.365c0.335-0.039,0.669-0.086,1.003-0.134c0.538-0.077,1.078-0.162,1.634-0.266    c0.787-0.013,1.125-0.727,1.167-1.423c0.163,0.104,0.634,0.541,0.81,0.61c0.32,0.178,0.708,0.147,1.013-0.04    C28.943,15.783,29.61,14.119,29.233,12.529z M21.702,15.938C21.703,15.938,21.703,15.938,21.702,15.938c0.001,0,0.001,0,0.002,0    C21.704,15.938,21.703,15.938,21.702,15.938z"/></g></g><g id="Feather"/><g id="Wings"/><g id="Fish"/></svg>