<?xml version="1.0" ?><!DOCTYPE svg  PUBLIC '-//W3C//DTD SVG 1.1//EN'  'http://www.w3.org/Graphics/SVG/1.1/DTD/svg11.dtd'><svg enable-background="new 0 0 91 91" height="91px" id="Layer_1" version="1.1" viewBox="0 0 91 91" width="91px" xml:space="preserve" xmlns="http://www.w3.org/2000/svg" xmlns:xlink="http://www.w3.org/1999/xlink"><g><g><g><path d="M44.558,2.404c0,9.16-10.985,14.229-10.985,14.229c-12.605,4.824-22.033,16.764-22.033,30.736     c0,18.232,16.068,33.014,34.299,33.014c18.232,0,34.297-14.781,34.297-33.014c0-13.864-9.278-25.724-21.738-30.624     c0,0-6.966-2.782-6.966-9.438" fill="#BAA1B6"/><path d="M45.838,82.636c-19.813,0-36.551-16.151-36.551-35.267c0-14.24,9.396-27.412,23.395-32.808     c0.772-0.376,9.624-4.865,9.624-12.157c0-1.245,1.007-2.252,2.252-2.252c1.243,0,2.252,1.007,2.252,2.252     c0,10.481-11.792,16.042-12.292,16.273c-0.047,0.021-0.093,0.041-0.14,0.058c-12.313,4.712-20.586,16.219-20.586,28.634     c0,16.675,14.675,30.762,32.046,30.762c17.369,0,32.045-14.087,32.045-30.762c0-12.287-8.163-23.749-20.311-28.527     c-0.354-0.142-8.394-3.447-8.394-11.535c0-1.243,1.007-2.252,2.252-2.252c1.243,0,2.252,1.009,2.252,2.252     c0,5.013,5.331,7.257,5.558,7.35c13.837,5.441,23.146,18.59,23.146,32.711C82.387,66.484,65.649,82.636,45.838,82.636z" fill="#434B56"/></g><g><path d="M44.558,71.476c-13.317,0-24.108-10.792-24.108-24.108c0-11.794,9.474-21.609,20.89-23.697     c0,0,4.258-0.826,4.258-4.349" fill="#E5C7B4"/><path d="M44.558,73.728c-14.535,0-26.361-11.825-26.361-26.36c0-12.403,9.775-23.542,22.737-25.914     c0.06-0.012,2.411-0.525,2.411-2.132c0-1.245,1.009-2.252,2.252-2.252c1.246,0,2.252,1.007,2.252,2.252     c0,4.256-3.977,6.151-6.082,6.561c-10.881,1.99-19.067,11.224-19.067,21.485c0,12.05,9.804,21.856,21.856,21.856     c1.243,0,2.252,1.006,2.252,2.252C46.81,72.719,45.801,73.728,44.558,73.728z" fill="#434B56"/></g><path d="M44.558,65.433c-9.963,0-18.068-8.104-18.068-18.065c0-9.962,8.104-18.067,18.068-18.067    c1.243,0,2.252,1.009,2.252,2.252c0,1.245-1.009,2.252-2.252,2.252c-7.478,0-13.563,6.083-13.563,13.563    c0,7.478,6.085,13.562,13.563,13.562c1.243,0,2.252,1.009,2.252,2.252C46.81,64.426,45.801,65.433,44.558,65.433z" fill="#434B56"/><path d="M44.558,57.332c-5.496,0-9.965-4.47-9.965-9.965c0-5.497,4.469-9.968,9.965-9.968    c1.243,0,2.252,1.009,2.252,2.252c0,1.246-1.009,2.252-2.252,2.252c-3.011,0-5.461,2.45-5.461,5.464c0,3.011,2.45,5.46,5.461,5.46    c1.243,0,2.252,1.009,2.252,2.253C46.81,56.325,45.801,57.332,44.558,57.332z" fill="#434B56"/><path d="M56.42,88.127c-0.576,0-1.154-0.219-1.593-0.659l-4.989-4.989c-0.881-0.879-0.881-2.305,0-3.186    c0.879-0.881,2.307-0.881,3.186,0l4.989,4.989c0.879,0.879,0.879,2.305,0,3.186C57.572,87.908,56.996,88.127,56.42,88.127z" fill="#434B56"/><path d="M35.258,88.127c-0.576,0-1.152-0.219-1.592-0.659c-0.879-0.879-0.879-2.307,0-3.186l4.985-4.989    c0.88-0.881,2.306-0.879,3.187,0c0.879,0.879,0.879,2.307,0,3.186l-4.985,4.989C36.412,87.908,35.836,88.127,35.258,88.127z" fill="#434B56"/><path d="M45.838,91c-1.246,0-2.252-1.009-2.252-2.252v-8.365c0-1.245,1.006-2.252,2.252-2.252    c1.243,0,2.252,1.007,2.252,2.252v8.365C48.09,89.991,47.081,91,45.838,91z" fill="#434B56"/><path d="M49.842,71.72c8.073,0,12.948-10.855,12.948-24.244c0-13.388-4.875-24.244-12.948-24.244" fill="#E5C7B4"/><path d="M52.693,73.972c-0.576,0-1.152-0.219-1.593-0.659c-0.879-0.881-0.879-2.307,0-3.186    c6.087-6.085,9.438-14.167,9.438-22.756c0-8.593-3.351-16.676-9.438-22.766c-0.879-0.879-0.879-2.307,0-3.185    c0.881-0.881,2.309-0.879,3.186,0c6.937,6.938,10.758,16.155,10.758,25.951c0,9.792-3.821,19.006-10.758,25.941    C53.848,73.753,53.27,73.972,52.693,73.972z" fill="#434B56"/></g></g></svg>