<?xml version="1.0" ?><svg data-name="Layer 1" id="Layer_1" viewBox="0 0 64 64" xmlns="http://www.w3.org/2000/svg"><defs><style>.cls-1{fill:#ecf1f6;}.cls-2{fill:#fc445d;}.cls-3{opacity:0.15;}</style></defs><title/><path class="cls-1" d="M38.64,15.87a1,1,0,0,1-.71-1.71l3-3a1,1,0,0,1,1.41,1.41l-3,3A1,1,0,0,1,38.64,15.87Z"/><path class="cls-1" d="M36,36.33a8.3,8.3,0,0,1-8.34-8.42,8.65,8.65,0,0,1,2.56-6l1.21-1.21a1,1,0,0,1,1.41,1.41l-1.21,1.21a6.67,6.67,0,0,0-2,4.64,6.33,6.33,0,0,0,1.85,4.56,6.52,6.52,0,0,0,9.2-.12l1.21-1.21a1,1,0,1,1,1.41,1.41l-1.21,1.21A8.65,8.65,0,0,1,36,36.33Z"/><path class="cls-1" d="M49.13,26.36a1,1,0,0,1-.71-1.71l3-3a1,1,0,0,1,1.41,1.41l-3,3A1,1,0,0,1,49.13,26.36Z"/><path class="cls-1" d="M17.21,47.79a1,1,0,0,1-.71-1.71L30.1,32.49a1,1,0,0,1,1.41,1.41L17.92,47.49A1,1,0,0,1,17.21,47.79Z"/><path class="cls-2" d="M53.89,27a22.08,22.08,0,0,1-4.76-1.68h0A22.6,22.6,0,0,1,38.64,14.87,22.08,22.08,0,0,1,37,10.11c-.6-2.55-2.49-4.86-4.9-5H32c-2.43-.12-4.5,3.16-3.63,7a31.11,31.11,0,0,0,3.71,9.17l.07.13A31.29,31.29,0,0,0,42.63,31.87h0a31.12,31.12,0,0,0,9.3,3.78c3.83.87,7.11-1.21,7-3.63S56.47,27.64,53.89,27Z"/><g class="cls-3"><path d="M42.63,31.87h0a31.12,31.12,0,0,0,9.3,3.78c3.83.87,7.11-1.21,7-3.63s-2.45-4.37-5-5a22.08,22.08,0,0,1-4.76-1.68h0A22.6,22.6,0,0,1,38.64,14.87,22.08,22.08,0,0,1,37,10.11c-.6-2.55-2.49-4.86-4.9-5V21.24l.07.13A31.29,31.29,0,0,0,42.63,31.87Z"/></g><rect class="cls-2" height="6.25" transform="translate(-33.01 23.82) rotate(-45)" width="14" x="5.24" y="48.63"/></svg>