<?xml version="1.0" encoding="utf-8"?>
<!-- Generator: Adobe Illustrator 19.2.0, SVG Export Plug-In . SVG Version: 6.00 Build 0)  -->
<svg version="1.1" id="Capa_1" xmlns="http://www.w3.org/2000/svg" xmlns:xlink="http://www.w3.org/1999/xlink" x="0px" y="0px"
	 viewBox="0 0 218.3 218.3" style="enable-background:new 0 0 218.3 218.3;" xml:space="preserve">
<style type="text/css">
	.st0{fill:#FFFFC5;}
	.st1{opacity:0.25;fill:#020403;enable-background:new    ;}
	.st2{fill:#FFF4DC;}
</style>
<g id="group-62svg">
	<path id="path-1_127_" class="st0" d="M137.2,67.4v-9.5c0-4.3-3.5-7.7-7.8-7.7h-9l-4.8-38.5h-6.4h-6.4l-4.8,38.5h-9
		c-4.3,0-7.8,3.4-7.8,7.7v9.5c-7,1.7-12.3,8-12.3,15.5v107.7c0,8.8,7.2,16,16.2,16h48.2c1.7,0,3.4-0.3,5-0.8
		c6.5-2.1,11.2-8.1,11.2-15.2V82.9C149.5,75.4,144.2,69.1,137.2,67.4z"/>
	<path id="path-2_127_" class="st1" d="M137.2,67.4v-9.5c0-4.3-3.5-7.7-7.8-7.7h-9l-4.8-38.5h-6.4h-6.4l-0.7,5.9l4.1,32.6h9
		c4.3,0,7.8,3.4,7.8,7.7v9.5c7,1.7,12.3,8,12.3,15.5v107.7c0,7.1-4.7,13.2-11.2,15.2c-1.6,0.5-3.2,0.8-5,0.8h14.3
		c1.7,0,3.4-0.3,5-0.8c6.5-2.1,11.2-8.1,11.2-15.2V82.9C149.5,75.4,144.2,69.1,137.2,67.4z"/>
	<path id="path-3_127_" class="st2" d="M116,113.5h15.5c3,0,5.4,1.5,5.4,3.4c0,1.9-2.4,3.4-5.4,3.4h-0.7c-3,0-5.4,1.5-5.4,3.4
		s2.4,3.4,5.4,3.4h33.4c3,0,5.4,1.5,5.4,3.4s-2.4,3.4-5.4,3.4h-40.1H80c-3,0-5.4-1.5-5.4-3.4s2.4-3.4,5.4-3.4h9.3
		c3,0,5.4-1.5,5.4-3.4s-2.4-3.4-5.4-3.4H45.2c-3,0-5.4-1.5-5.4-3.4c0-1.9,2.4-3.4,5.4-3.4h10.4H116z"/>
	<path id="path-4_126_" class="st2" d="M24.6,81.4h5c1,0,1.7,0.8,1.7,1.9c0,1-0.8,1.9-1.7,1.9h-0.2c-1,0-1.7,0.8-1.7,1.9
		c0,1,0.8,1.9,1.7,1.9h10.7c1,0,1.7,0.8,1.7,1.9c0,1-0.8,1.9-1.7,1.9H27.2H13c-1,0-1.7-0.8-1.7-1.9c0-1,0.8-1.9,1.7-1.9h3
		c1,0,1.7-0.8,1.7-1.9c0-1-0.8-1.9-1.7-1.9H1.7c-1,0-1.7-0.8-1.7-1.9c0-1,0.8-1.9,1.7-1.9h3.4H24.6z"/>
	<path id="path-5_126_" class="st2" d="M212.1,136.9c3.4,0,6.2-1.7,6.2-3.9c0-2.1-2.8-3.9-6.2-3.9h-19c-3.4,0-6.2,1.7-6.2,3.9
		c0,2.1,2.8,3.9,6.2,3.9H212.1z"/>
</g>
</svg>
