<?xml version="1.0" encoding="utf-8"?>
<!-- Generator: Adobe Illustrator 17.1.0, SVG Export Plug-In . SVG Version: 6.00 Build 0)  -->
<!DOCTYPE svg PUBLIC "-//W3C//DTD SVG 1.1//EN" "http://www.w3.org/Graphics/SVG/1.1/DTD/svg11.dtd">
<svg version="1.1" id="sachet-sugar" xmlns="http://www.w3.org/2000/svg" xmlns:xlink="http://www.w3.org/1999/xlink" x="0px"
	 y="0px" viewBox="0 0 1010 1010" enable-background="new 0 0 1010 1010" xml:space="preserve">
<g id="sachet-sugar-sachet-sugar">
	<g>
		<g>
			<polygon fill="#F4EDE9" points="106.77,646.3535 646.3125,106.7905 697.7246,158.1826 674.2783,181.5767 697.7246,158.1826 
				800.4668,260.9351 777.041,284.3604 800.4668,260.9351 851.8379,312.3066 828.4131,335.7217 851.8379,312.3066 903.209,363.7085 
				363.6675,903.2715 			"/>
		</g>
		<g>
			<path fill="#F4EDE9" d="M646.3125,106.7905l32.2813-75.4541c3.8007-8.7949,12.3906-14.4663,21.9257-14.4868h37.5625
				c8.5479-0.0205,14.0342,3.6475,17.0957,6.6885c3.0821,3.0928,6.7404,8.5483,6.7404,17.189l0.0204,29.3637
				c0,5.9282,2.6299,11.9492,7.2949,16.624c4.6025,4.6128,10.624,7.2432,16.5205,7.2432l29.4463,0.0103
				c8.4248-0.1128,13.9736,3.5756,17.0967,6.7089c3.0615,3.0621,6.7187,8.4971,6.7187,17.066v29.4355
				c0,5.9385,2.6309,11.959,7.2335,16.562c4.624,4.6236,10.6846,7.2744,16.6025,7.2744l29.3847-0.0102
				c8.5274-0.0415,14.0137,3.647,17.0967,6.75c3.0615,3.0615,6.7393,8.5273,6.7197,17.0757l-0.0214,29.4253
				c0,5.8872,2.6923,11.9492,7.3163,16.542c4.623,4.6435,10.6436,7.2739,16.5205,7.2739l29.5068,0.041
				c8.4453-0.0718,13.9531,3.6064,17.0557,6.73c3.0205,3.0307,6.6992,8.4555,6.6992,17.0141l0.041,37.5933
				c0,9.6064-5.7119,18.2266-14.5283,21.956l-75.4336,32.3023L646.3125,106.7905z"/>
		</g>
		<g>
			<path fill="#F4EDE9" d="M100.3794,832.5332c-4.1509-4.1924-6.4932-10.0273-6.4522-16.3984v-31.3672
				c0-6.0723-2.3837-11.8047-6.6987-16.1094c-4.3154-4.3359-10.0688-6.6992-16.2129-6.7197H39.7202
				c-8.1782-0.0107-13.418-3.5752-16.3974-6.5342c-2.9385-2.9697-6.4732-8.1895-6.4937-16.3359l0.041-39.1866
				c0-9.0927,5.3838-17.3525,13.7881-20.9697l76.1118-32.5586l256.8975,256.918l-32.5283,75.9365
				c-3.6372,8.4971-11.8975,13.9629-21.0621,13.9629h-39.1245c-8.1987,0-13.4389-3.5557-16.3979-6.5146
				c-2.9795-2.959-6.5137-8.1778-6.4727-16.3663l-0.041-31.3056c0-5.7021-2.5479-11.4766-6.9863-15.9355
				c-4.4385-4.4179-10.2334-6.9658-15.9048-6.9658H193.916c-6.3286,0.0303-12.2056-2.2803-16.418-6.5137
				c-4.2124-4.2119-6.5141-10.0068-6.4726-16.3369l-0.0415-31.3769c0-5.6094-2.5479-11.4044-6.9863-15.8428
				c-4.4385-4.4385-10.233-6.9756-15.9248-7.0176l-31.2544,0.042C110.5713,839.0879,104.6533,836.7656,100.3794,832.5332
				L100.3794,832.5332z"/>
		</g>
		<polygon fill="#BCB3BE" points="597.9609,412.0283 597.9414,598.2187 411.751,598.2187 411.792,412.0488 		"/>
	</g>
	<g>
		<g>
			<path fill="#E6DBD5" d="M310.1182,1010c0,0,0,0-0.0205,0c0,0-0.0415,0-0.0621,0h-39.083
				c-21.8842,0-39.6997-17.8047-39.7202-39.6992l-0.0205-31.2959c0-3.3496-2.7329-6.0928-6.103-6.1026l-31.1929,0.0303
				c-21.9458-0.0615-39.7407-17.8662-39.7407-39.7002v-31.3457c0-3.3086-2.7534-6.041-6.1235-6.0517h-31.2539
				c-21.8433,0-39.6792-17.7842-39.7203-39.6485l0.0205-31.4082c-0.0205-3.2783-2.7329-5.9795-6.062-5.9902H39.7202
				C17.8359,778.7363,0.041,760.9316,0,739.0986l0.0205-39.1445c-0.041-15.8643,9.3906-30.2168,24.0625-36.5146l73.0498-31.2852
				L632.1133,97.1841l31.0488-72.5054C669.6348,9.668,684.3262,0,700.6016,0h37.4804
				c22.4795,0.0615,40.6856,18.3291,40.6651,40.7168l0.0205,29.3638c0,2.5483,1.2949,4.2124,2.0547,4.9829
				c0.7607,0.771,2.4453,2.0552,4.9531,2.0552h29.4043c22.4394,0,40.666,18.2368,40.666,40.6552v29.4048
				c0,2.5274,1.2734,4.1919,2.0547,4.9624c0.7598,0.75,2.4043,2.0239,4.8496,2.0239h29.4863
				c22.3985,0,40.625,18.2369,40.6446,40.6451v29.4458c0,2.497,1.2949,4.1611,2.0556,4.9316
				c0.7803,0.7607,2.4444,2.0552,4.9522,2.0552l29.4453,0.0307c22.4189,0,40.6455,18.2369,40.666,40.6348v37.5215
				c0,16.2847-9.6582,30.9663-24.6172,37.3984l-72.5566,31.0694l-534.939,534.9384l-31.3159,73.0918
				C340.2422,1000.5889,325.9404,1010,310.1182,1010L310.1182,1010z M225.1499,899.2334
				c21.9458,0.082,39.7202,17.918,39.7202,39.751l0.041,31.2851c0,3.3496,2.7124,6.0723,6.0415,6.0723h39.1245h0.0411
				c2.3833,0,4.5615-1.4688,5.5478-3.7402l32.5488-75.9981c0.8428-1.9726,2.0552-3.7715,3.5757-5.2812l539.522-539.5215
				c1.5195-1.5205,3.3076-2.7227,5.2803-3.5757l75.4951-32.333c2.5684-1.0991,4.2539-3.6372,4.2539-6.4624V271.939
				c0-3.8531-3.123-6.9971-6.9668-6.9971l-29.4658-0.0308c-10.8496,0-21.083-4.2329-28.7471-11.9077
				c-7.7061-7.685-11.9395-17.8979-11.9395-28.7475v-29.4253c0-3.8423-3.123-6.9966-6.9454-6.9966h-29.4668
				c-10.8906,0-21.082-4.2329-28.7265-11.9082c-7.7051-7.6953-11.918-17.9077-11.918-28.7779v-29.374
				c0-3.853-3.1025-6.9868-6.9248-6.9868h-29.4658c-10.8711,0-21.084-4.2432-28.7686-11.9385
				c-7.6845-7.685-11.9179-17.9082-11.8974-28.7783l-0.041-29.3638c0-3.8837-3.1446-7.0376-7.0273-7.0478h-37.4395
				c-2.836,0-5.3848,1.6948-6.5137,4.3149l-32.3027,75.4439c-0.8428,1.9726-2.0547,3.7602-3.5762,5.2807L118.688,658.2197
				c-1.5,1.5204-3.3491,2.7646-5.3218,3.6064l-76.0298,32.5587c-2.2192,0.956-3.6572,3.1132-3.6367,5.5175l-0.0205,39.1758
				c0,3.3086,2.7329,6.041,6.082,6.041h31.2954c21.8638,0.0312,39.6792,17.8164,39.7203,39.6484l-0.0411,31.3984
				c0,3.2774,2.7124,6,6.0621,6h31.3364c21.8843,0.0928,39.6587,17.8985,39.6997,39.6895v31.3769
				c0,3.3194,2.7534,6.0215,6.082,6.0312L225.1499,899.2334L225.1499,899.2334z"/>
		</g>
		<g>
			<g>
				<g>
					<polygon fill="#E6DBD5" points="661.0449,218.6465 637.2295,194.8408 688.5186,143.5723 712.3145,167.3779 661.0449,218.6465 
											"/>
				</g>
				<g>
					<polygon fill="#E6DBD5" points="712.3555,270.0483 688.5596,246.2432 739.8691,194.9438 763.6641,218.749 712.3555,270.0483 
											"/>
				</g>
				<g>
					<polygon fill="#E6DBD5" points="763.8086,321.4092 740.0137,297.604 791.2617,246.3457 815.0762,270.1514 763.8086,321.4092 
											"/>
				</g>
				<g>
					<polygon fill="#E6DBD5" points="815.1797,372.7705 791.3633,348.9648 842.6328,297.7065 866.4482,321.5122 815.1797,372.7705 
											"/>
				</g>
			</g>
			<g>
				<g>
					<polygon fill="#E6DBD5" points="167.1621,712.5293 143.3667,688.7344 194.5737,637.5068 218.3691,661.3125 167.1621,712.5293 
											"/>
				</g>
				<g>
					<polygon fill="#E6DBD5" points="218.5332,763.8906 194.7178,740.085 245.9243,688.8887 269.7197,712.6934 218.5332,763.8906 
											"/>
				</g>
				<g>
					<polygon fill="#E6DBD5" points="269.8428,815.3652 246.0273,791.5586 297.2959,740.3105 321.0908,764.1172 269.8428,815.3652 
											"/>
				</g>
				<g>
					<polygon fill="#E6DBD5" points="321.1938,866.7559 297.3984,842.9512 348.708,791.6406 372.5034,815.4365 321.1938,866.7559 
											"/>
				</g>
			</g>
		</g>
		<g>
			<path fill="#E6DBD5" d="M903.209,380.5376c-4.2949,0-8.6094-1.6436-11.8965-4.9316L634.4141,118.6982
				c-6.5752-6.5752-6.5752-17.2295,0-23.8051c6.5761-6.5757,17.2207-6.5757,23.7949,0l256.918,256.9077
				c6.576,6.5752,6.576,17.23,0,23.8052C911.8398,378.894,907.5244,380.5376,903.209,380.5376L903.209,380.5376z"/>
		</g>
		<g>
			<path fill="#E6DBD5" d="M363.6675,920.0996c-4.2949,0-8.6099-1.6426-11.8975-4.9316L94.8726,658.25
				c-6.5757-6.5742-6.5757-17.2285,0-23.8047c6.5752-6.5762,17.2197-6.5762,23.7949,0l256.9179,256.918
				c6.5757,6.5762,6.5757,17.2305,0,23.8047C372.2979,918.457,367.9824,920.0996,363.6675,920.0996L363.6675,920.0996z"/>
		</g>
	</g>
	<g>
		<path fill="#A37458" d="M355.3042,598.1465l7.0688,19.2851c-11.8564,3.0411-23.5693,9.0822-29.1997,14.7022
			c-5.3217,5.332-7.0273,10.8701-3.2055,14.7021c12.9868,12.9668,43.2549-31.7988,68.5293-6.3495
			c13.7881,13.8086,9.247,33.2071-6.3291,48.8125c-11.5684,11.5801-27.5962,18.71-42.2886,19.8916l-6.5962-19.2842
			c13.665-0.8222,28.0283-6.9667,35.4668-14.4052c6.5347-6.544,8.0962-12.8526,3.7397-17.209
			c-13.2744-13.2744-43.0693,31.9932-68.0156,7.0381c-12.7807-12.7812-9.8633-31.7989,6.4317-48.084
			C330.79,607.373,343.6533,600.54,355.3042,598.1465z"/>
		<path fill="#A37458" d="M463.2046,558.2515c18.6167,18.6479,18.0005,42.3715-1.3975,61.7895
			c-19.5415,19.5108-43.563,20.4356-62.2002,1.8281l-40.9531-40.9629l15.9248-15.915l40.9326,40.9531
			c10.1509,10.1613,22.9527,9.669,32.4053,0.2061c9.4522-9.4317,9.5547-21.8535-0.5757-32.0049l-40.9736-40.9429l15.8838-15.894
			L463.2046,558.2515z"/>
		<path fill="#A37458" d="M532.4941,476.9204l27.0215,27.0317c-1.9941,12.9249-9.6377,28.0074-19.3984,37.7579
			c-21.3086,21.3086-52.9942,22.0478-73.4605,1.6025c-20.3022-20.3018-19.1923-52.2134,2.7535-74.1489
			c10.4384-10.4595,25.1513-17.0659,38.5078-18.0108l2.4453,20.3223c-10.0894,0.4009-20.3638,4.6543-27.1651,11.4766
			c-12.4936,12.4726-12.5961,31.6958-0.226,44.0556c12.4931,12.4937,31.7885,12.2984,44.2817-0.185
			c4.2129-4.2329,7.7266-10.7774,9.9453-17.6099l-18.4931-18.4937L532.4941,476.9204z"/>
		<path fill="#A37458" d="M582.1387,470.9204l8.1377,19.2437l-16.3975,16.3974l-39.8437-101.0263l16.3974-16.3877l100.5029,40.3369
			l-16.9941,17.0039l-19.2324-8.1577L582.1387,470.9204z M558.3848,414.3809l16.1923,38.5493l22.2129-22.2539L558.3848,414.3809z"/>
		<path fill="#A37458" d="M670.2715,369.873l-1.5,1.5103l-14.6719,14.7026l20.1172,20.1372l-15.8838,15.8741l-70.4404-70.4302
			l30.5762-30.5762c18.4316-18.4321,37.7265-20.0346,53.3437-4.4487c10.8496,10.8701,14.0762,23.3433,9.5547,35.8984l38.2617,8.2808
			l-18.0215,18.021L670.2715,369.873z M655.4971,358.1191c8.7539-8.7841,9.7812-17.8256,1.7256-25.8808
			c-7.8497-7.8389-16.7872-6.7295-25.5411,2.0552l-14.6923,14.6816l23.8154,23.8159L655.4971,358.1191z"/>
	</g>
</g>
</svg>
