<?xml version="1.0" encoding="UTF-8" standalone="no"?>
<!-- Created with Inkscape (http://www.inkscape.org/) -->

<svg
   xmlns:dc="http://purl.org/dc/elements/1.1/"
   xmlns:cc="http://creativecommons.org/ns#"
   xmlns:rdf="http://www.w3.org/1999/02/22-rdf-syntax-ns#"
   xmlns:svg="http://www.w3.org/2000/svg"
   xmlns="http://www.w3.org/2000/svg"
   xmlns:sodipodi="http://sodipodi.sourceforge.net/DTD/sodipodi-0.dtd"
   xmlns:inkscape="http://www.inkscape.org/namespaces/inkscape"
   width="7.4585304mm"
   height="11.998955mm"
   viewBox="0 0 7.4585313 11.998953"
   version="1.1"
   id="svg5889"
   inkscape:version="0.92.3 (2405546, 2018-03-11)"
   sodipodi:docname="batido-granizado.svg">
  <defs
     id="defs5883">
    <clipPath
       clipPathUnits="userSpaceOnUse"
       id="clipPath2482">
      <path
         d="m 82.4526,204.093 h 5.0166 v -2.828 h -5.0166 z"
         id="path2480"
         inkscape:connector-curvature="0" />
    </clipPath>
    <clipPath
       clipPathUnits="userSpaceOnUse"
       id="clipPath1488">
      <path
         d="m 180.169,209.916 h 7.422 v -7.286 h -7.422 z"
         id="path1486"
         inkscape:connector-curvature="0" />
    </clipPath>
  </defs>
  <sodipodi:namedview
     id="base"
     pagecolor="#ffffff"
     bordercolor="#666666"
     borderopacity="1.0"
     inkscape:pageopacity="0.0"
     inkscape:pageshadow="2"
     inkscape:zoom="3.06"
     inkscape:cx="52.712689"
     inkscape:cy="10.554223"
     inkscape:document-units="mm"
     inkscape:current-layer="layer1"
     showgrid="false"
     fit-margin-top="1"
     fit-margin-bottom="1"
     fit-margin-right="1"
     fit-margin-left="1"
     inkscape:window-width="1853"
     inkscape:window-height="1025"
     inkscape:window-x="67"
     inkscape:window-y="27"
     inkscape:window-maximized="1" />
  <metadata
     id="metadata5886">
    <rdf:RDF>
      <cc:Work
         rdf:about="">
        <dc:format>image/svg+xml</dc:format>
        <dc:type
           rdf:resource="http://purl.org/dc/dcmitype/StillImage" />
        <dc:title></dc:title>
      </cc:Work>
    </rdf:RDF>
  </metadata>
  <g
     inkscape:label="Capa 1"
     inkscape:groupmode="layer"
     id="layer1"
     transform="translate(-91.886436,-112.25617)">
    <g
       transform="matrix(0.35277777,0,0,-0.35277777,-65.66156,190.43597)"
       id="g12115">
      <g
         transform="translate(449.9316,207.5605)"
         id="g336">
        <path
           inkscape:connector-curvature="0"
           id="path338"
           style="fill:#cce8e5;fill-opacity:1;fill-rule:nonzero;stroke:none"
           d="m 0,0 v 1.32 c 0,3.995 3.238,7.235 7.232,7.235 3.997,0 7.235,-3.24 7.235,-7.235 v -1.508" />
      </g>
      <g
         transform="translate(463.0137,208.8809)"
         id="g340">
        <path
           inkscape:connector-curvature="0"
           id="path342"
           style="fill:#efece5;fill-opacity:1;fill-rule:nonzero;stroke:none"
           d="m 0,0 c 0,-3.231 -2.619,-5.85 -5.85,-5.85 -3.23,0 -5.849,2.619 -5.849,5.85 0,3.23 2.619,5.851 5.849,5.851 C -2.619,5.851 0,3.23 0,0" />
      </g>
      <g
         transform="translate(461.2441,207.5605)"
         id="g344">
        <path
           inkscape:connector-curvature="0"
           id="path346"
           style="fill:#f4af1b;fill-opacity:1;fill-rule:nonzero;stroke:none"
           d="m 0,0 h -10.928 l 1.996,-16.045 h 0.522 v -0.351 c 0,-0.135 0.111,-0.246 0.248,-0.246 h 5.396 2.786 c 0.136,0 0.248,0.111 0.248,0.246 v 0.351 H 0.787 L 2.783,0 Z" />
      </g>
      <g
         transform="translate(461.4355,207.9463)"
         id="g348">
        <path
           inkscape:connector-curvature="0"
           id="path350"
           style="fill:#b4e0e0;fill-opacity:1;fill-rule:nonzero;stroke:none"
           d="m 0,0 h -11.436 l 2.088,-16.789 h 0.547 v -0.368 c 0,-0.142 0.115,-0.258 0.258,-0.258 h 5.647 2.914 c 0.142,0 0.259,0.116 0.259,0.258 v 0.368 H 0.822 L 2.91,0 Z" />
      </g>
      <g
         transform="translate(452.1738,191.2549)"
         id="g352">
        <path
           inkscape:connector-curvature="0"
           id="path354"
           style="fill:#b4e0e0;fill-opacity:1;fill-rule:nonzero;stroke:none"
           d="m 0,0 h 0.557 v -0.466 c 0,-0.087 0.074,-0.161 0.162,-0.161 h 8.56 c 0.09,0 0.162,0.074 0.162,0.161 V 0 h 0.557 l 2.065,16.594 H -2.064 Z m 9.279,-0.821 h -8.56 c -0.198,0 -0.356,0.159 -0.356,0.355 v 0.272 H -0.172 L -2.285,16.788 H 12.283 L 10.17,-0.194 H 9.635 v -0.272 c 0,-0.196 -0.158,-0.355 -0.356,-0.355" />
      </g>
      <g
         transform="translate(461.2441,207.5605)"
         id="g356">
        <path
           inkscape:connector-curvature="0"
           id="path358"
           style="fill:#e99b23;fill-opacity:1;fill-rule:nonzero;stroke:none"
           d="m 0,0 -1.994,-16.045 h -0.524 v -0.351 c 0,-0.135 -0.109,-0.246 -0.248,-0.246 H 0.02 c 0.136,0 0.248,0.111 0.248,0.246 v 0.351 H 0.787 L 2.783,0 Z" />
      </g>
      <g
         transform="translate(458.7266,191.165)"
         id="g360">
        <path
           inkscape:connector-curvature="0"
           id="path362"
           style="fill:#f4af1b;fill-opacity:1;fill-rule:nonzero;stroke:none"
           d="M 0,0 V 0.351 H 0.523 L 2.518,16.396 H -8.41 L -6.414,0.351 h 0.521 V 0 c 0,-0.136 0.112,-0.246 0.248,-0.246 h 5.397 C -0.109,-0.246 0,-0.136 0,0" />
      </g>
      <g
         transform="translate(464.9004,207.3721)"
         id="g364">
        <path
           inkscape:connector-curvature="0"
           id="path366"
           style="fill:#b4e0e0;fill-opacity:1;fill-rule:nonzero;stroke:none"
           d="m 0,0 c 0,-0.384 -0.309,-0.693 -0.691,-0.693 h -14.088 c -0.383,0 -0.694,0.309 -0.694,0.693 0,0.382 0.311,0.69 0.694,0.69 H -0.691 C -0.309,0.69 0,0.382 0,0" />
      </g>
      <g
         transform="translate(454.3887,207.7158)"
         id="g368">
        <path
           inkscape:connector-curvature="0"
           id="path370"
           style="fill:#cce8e5;fill-opacity:1;fill-rule:nonzero;stroke:none"
           d="m 0,0 c 0,-0.188 -0.154,-0.344 -0.346,-0.344 h -2.896 c -0.192,0 -0.346,0.156 -0.346,0.344 0,0.193 0.154,0.347 0.346,0.347 h 2.896 C -0.154,0.347 0,0.193 0,0" />
      </g>
      <g
         transform="translate(463.834,209.0049)"
         id="g372">
        <path
           inkscape:connector-curvature="0"
           id="path374"
           style="fill:#efece5;fill-opacity:1;fill-rule:nonzero;stroke:none"
           d="m 0,0 c 0,-0.52 -0.422,-0.942 -0.943,-0.942 h -11.453 c -0.522,0 -0.944,0.422 -0.944,0.942 0,0.522 0.422,0.944 0.944,0.944 H -0.943 C -0.422,0.944 0,0.522 0,0" />
      </g>
      <g
         transform="translate(458.1016,214.1699)"
         id="g376">
        <path
           inkscape:connector-curvature="0"
           id="path378"
           style="fill:#67bc4b;fill-opacity:1;fill-rule:nonzero;stroke:none"
           d="M 0,0 -0.937,0.464 0.504,3.38 C 0.57,3.557 0.842,4.167 1.48,4.46 1.951,4.672 2.48,4.655 3.061,4.412 4.479,3.813 6.074,3.048 6.09,3.041 L 5.637,2.101 C 5.621,2.106 4.051,2.86 2.654,3.449 2.357,3.576 2.109,3.595 1.918,3.51 1.613,3.375 1.48,3.01 1.48,3.006 L 1.469,2.971 1.455,2.943 Z" />
      </g>
      <g
         transform="translate(459.3184,213.374)"
         id="g380">
        <path
           inkscape:connector-curvature="0"
           id="path382"
           style="fill:#efece5;fill-opacity:1;fill-rule:nonzero;stroke:none"
           d="m 0,0 c 0,-0.709 -0.768,-1.284 -1.711,-1.284 -0.945,0 -1.711,0.575 -1.711,1.284 0,0.708 0.766,1.283 1.711,1.283 C -0.768,1.283 0,0.708 0,0" />
      </g>
      <g
         transform="translate(460.7051,200.8311)"
         id="g384">
        <path
           inkscape:connector-curvature="0"
           id="path386"
           style="fill:#ed9321;fill-opacity:1;fill-rule:nonzero;stroke:none"
           d="m 0,0 c 0,-1.966 -1.592,-3.558 -3.557,-3.558 -1.964,0 -3.556,1.592 -3.556,3.558 0,1.966 1.592,3.558 3.556,3.558 C -1.592,3.558 0,1.966 0,0" />
      </g>
      <g
         transform="translate(459.1562,191.2002)"
         id="g388">
        <path
           inkscape:connector-curvature="0"
           id="path390"
           style="fill:#f3c735;fill-opacity:1;fill-rule:nonzero;stroke:none"
           d="m 0,0 c 0,-0.173 -0.143,-0.315 -0.316,-0.315 h -5.891 c -0.176,0 -0.314,0.142 -0.314,0.315 0,0.175 0.138,0.315 0.314,0.315 h 5.891 C -0.143,0.315 0,0.175 0,0" />
      </g>
    </g>
  </g>
</svg>
