<?xml version="1.0" encoding="UTF-8" standalone="no"?>
<!-- Created with Inkscape (http://www.inkscape.org/) -->

<svg
   xmlns:dc="http://purl.org/dc/elements/1.1/"
   xmlns:cc="http://creativecommons.org/ns#"
   xmlns:rdf="http://www.w3.org/1999/02/22-rdf-syntax-ns#"
   xmlns:svg="http://www.w3.org/2000/svg"
   xmlns="http://www.w3.org/2000/svg"
   xmlns:sodipodi="http://sodipodi.sourceforge.net/DTD/sodipodi-0.dtd"
   xmlns:inkscape="http://www.inkscape.org/namespaces/inkscape"
   width="8.7691002mm"
   height="10.459929mm"
   viewBox="0 0 8.7691025 10.459926"
   version="1.1"
   id="svg5889"
   inkscape:version="0.92.3 (2405546, 2018-03-11)"
   sodipodi:docname="coffe-cup-to-take-away.svg">
  <defs
     id="defs5883">
    <clipPath
       clipPathUnits="userSpaceOnUse"
       id="clipPath2482">
      <path
         d="m 82.4526,204.093 h 5.0166 v -2.828 h -5.0166 z"
         id="path2480"
         inkscape:connector-curvature="0" />
    </clipPath>
    <clipPath
       clipPathUnits="userSpaceOnUse"
       id="clipPath1488">
      <path
         d="m 180.169,209.916 h 7.422 v -7.286 h -7.422 z"
         id="path1486"
         inkscape:connector-curvature="0" />
    </clipPath>
    <clipPath
       clipPathUnits="userSpaceOnUse"
       id="clipPath1994">
      <path
         d="m 138.246,160.184 h 1.687 v -15.909 h -1.687 z"
         id="path1992"
         inkscape:connector-curvature="0" />
    </clipPath>
  </defs>
  <sodipodi:namedview
     id="base"
     pagecolor="#ffffff"
     bordercolor="#666666"
     borderopacity="1.0"
     inkscape:pageopacity="0.0"
     inkscape:pageshadow="2"
     inkscape:zoom="3.06"
     inkscape:cx="28.880121"
     inkscape:cy="16.405239"
     inkscape:document-units="mm"
     inkscape:current-layer="layer1"
     showgrid="false"
     fit-margin-top="1"
     fit-margin-bottom="1"
     fit-margin-right="1"
     fit-margin-left="1"
     inkscape:window-width="1853"
     inkscape:window-height="1025"
     inkscape:window-x="67"
     inkscape:window-y="27"
     inkscape:window-maximized="1" />
  <metadata
     id="metadata5886">
    <rdf:RDF>
      <cc:Work
         rdf:about="">
        <dc:format>image/svg+xml</dc:format>
        <dc:type
           rdf:resource="http://purl.org/dc/dcmitype/StillImage" />
        <dc:title></dc:title>
      </cc:Work>
    </rdf:RDF>
  </metadata>
  <g
     inkscape:label="Capa 1"
     inkscape:groupmode="layer"
     id="layer1"
     transform="translate(-98.192137,-115.34328)">
    <g
       transform="matrix(0.35277777,0,0,-0.35277777,-42.548009,172.97833)"
       id="g13484">
      <g
         transform="translate(419.1504,158.3955)"
         id="g54">
        <path
           inkscape:connector-curvature="0"
           id="path56"
           style="fill:#cac0b7;fill-opacity:1;fill-rule:nonzero;stroke:none"
           d="m 0,0 h -3.082 c 0.465,0 0.842,-0.378 0.842,-0.843 l -2.391,-19.944 c 0,-0.58 -0.273,-1.049 -0.609,-1.049 h 3.084 c 0.336,0 0.607,0.469 0.607,1.049 L 0.844,-0.843 C 0.844,-0.378 0.467,0 0,0" />
      </g>
      <g
         transform="translate(417.3301,152.916)"
         id="g58">
        <path
           inkscape:connector-curvature="0"
           id="path60"
           style="fill:#efece5;fill-opacity:1;fill-rule:nonzero;stroke:none"
           d="m 0,0 0.326,4.637 c 0,0.465 -0.379,0.842 -0.842,0.842 h -13.213 c -0.464,0 -0.843,-0.377 -0.843,-0.842 L -12.814,-10.01 -13.99,0 Z" />
      </g>
      <g
         transform="translate(405.1523,137.6084)"
         id="g62">
        <path
           inkscape:connector-curvature="0"
           id="path64"
           style="fill:#efece5;fill-opacity:1;fill-rule:nonzero;stroke:none"
           d="m 0,0 c 0,-0.58 0.273,-1.049 0.607,-1.049 h 9.887 c 0.338,0 0.61,0.469 0.61,1.049 l 0.373,5.285 H -0.635 Z" />
      </g>
      <g
         transform="translate(403.3398,152.916)"
         id="g66">
        <path
           inkscape:connector-curvature="0"
           id="path68"
           style="fill:#e1af79;fill-opacity:1;fill-rule:nonzero;stroke:none"
           d="m 0,0 1.176,-10.01 0.002,-0.012 H 13.289 L 13.99,0 Z" />
      </g>
      <g
         transform="translate(420.6641,156.8613)"
         id="g70">
        <path
           inkscape:connector-curvature="0"
           id="path72"
           style="fill:#efece5;fill-opacity:1;fill-rule:nonzero;stroke:none"
           d="m 0,0 h -0.656 c 0.006,0.038 0.013,0.077 0.013,0.119 v 1.175 c 0,0.403 -0.328,0.73 -0.73,0.73 h -1.705 c 0.027,0.076 0.043,0.156 0.043,0.24 v 0.684 c 0,0.404 -0.326,0.731 -0.731,0.731 h -11.043 c -0.404,0 -0.73,-0.327 -0.73,-0.731 V 2.264 c 0,-0.084 0.016,-0.164 0.043,-0.24 h -1.703 c -0.406,0 -0.731,-0.327 -0.731,-0.73 V 0.119 c 0,-0.042 0.004,-0.081 0.012,-0.119 h -0.656 c -0.168,0 -0.307,-0.136 -0.307,-0.305 0,-0.17 0.139,-0.308 0.307,-0.308 H -17.199 -1.373 0 c 0.17,0 0.307,0.138 0.307,0.308 C 0.307,-0.136 0.17,0 0,0" />
      </g>
      <g
         transform="translate(410.9414,158.2139)"
         id="g74">
        <path
           inkscape:connector-curvature="0"
           id="path76"
           style="fill:#ffffff;fill-opacity:1;fill-rule:nonzero;stroke:none"
           d="M 0,0 C 0,-0.37 -0.301,-0.669 -0.672,-0.669 H -6.15 c -0.37,0 -0.668,0.299 -0.668,0.669 0,0.372 0.298,0.672 0.668,0.672 h 5.478 C -0.301,0.672 0,0.372 0,0" />
      </g>
      <g
         transform="translate(410.4766,160.0752)"
         id="g78">
        <path
           inkscape:connector-curvature="0"
           id="path80"
           style="fill:#ffffff;fill-opacity:1;fill-rule:nonzero;stroke:none"
           d="M 0,0 C 0,-0.255 -0.205,-0.462 -0.461,-0.462 H -4.24 c -0.254,0 -0.463,0.207 -0.463,0.462 0,0.254 0.209,0.463 0.463,0.463 h 3.779 C -0.205,0.463 0,0.254 0,0" />
      </g>
      <g
         transform="translate(418.1602,156.0605)"
         id="g82">
        <path
           inkscape:connector-curvature="0"
           id="path84"
           style="fill:#cac0b7;fill-opacity:1;fill-rule:nonzero;stroke:none"
           d="m 0,0 c 0,-0.104 -0.098,-0.186 -0.219,-0.186 h -14.804 c -0.125,0 -0.223,0.082 -0.223,0.186 0,0.104 0.098,0.187 0.223,0.187 H -0.219 C -0.098,0.187 0,0.104 0,0" />
      </g>
      <g
         transform="translate(419.3984,152.916)"
         id="g86">
        <path
           inkscape:connector-curvature="0"
           id="path88"
           style="fill:#d99e62;fill-opacity:1;fill-rule:nonzero;stroke:none"
           d="M 0,0 H -2.068 L -2.77,-10.022 h 1.606 z" />
      </g>
      <g
         transform="translate(404.5176,142.8936)"
         id="g90">
        <path
           inkscape:connector-curvature="0"
           id="path92"
           style="fill:#e1af79;fill-opacity:1;fill-rule:nonzero;stroke:none"
           d="M 0,0 V 0 L -0.002,0.013 Z" />
      </g>
      <g
         transform="translate(415.3809,147.6484)"
         id="g94">
        <path
           inkscape:connector-curvature="0"
           id="path96"
           style="fill:#4daf4e;fill-opacity:1;fill-rule:nonzero;stroke:none"
           d="m 0,0 c 0,-2.169 -1.756,-3.926 -3.924,-3.926 -2.168,0 -3.926,1.757 -3.926,3.926 0,2.167 1.758,3.925 3.926,3.925 C -1.756,3.925 0,2.167 0,0" />
      </g>
    </g>
  </g>
</svg>
