<svg xmlns="http://www.w3.org/2000/svg" viewBox="0 0 28.99 21.87"><defs><style>.cls-1,.cls-2{fill:#f9b916;}.cls-2,.cls-4,.cls-5{fill-rule:evenodd;}.cls-3{fill:#4d443c;}.cls-4{fill:#fff;}.cls-5{fill:#fb5845;}</style></defs><title>4_1</title><g id="Layer_2" data-name="Layer 2"><g id="Layer_1-2" data-name="Layer 1"><path class="cls-1" d="M7.33,14.89a.29.29,0,0,1-.56-.09L9.17.24a.29.29,0,1,1,.56.09Z"/><path class="cls-2" d="M3.18,20.58V18.7c0-.44.23-.81.52-.81h1c.28,0,.52.36.52.81v1.88c0,.44-.23.81-.52.81h-1c-.28,0-.52-.36-.52-.81"/><path class="cls-3" d="M3.46,18.7v1.88a.78.78,0,0,0,.11.42c0,.06.09.1.13.1h1s.08,0,.13-.1A.78.78,0,0,0,5,20.58V18.7a.78.78,0,0,0-.11-.41c0-.06-.09-.1-.13-.1h-1s-.08,0-.13.1a.78.78,0,0,0-.11.41m-.57,1.88V18.7a1.36,1.36,0,0,1,.2-.72.73.73,0,0,1,.61-.37h1a.73.73,0,0,1,.61.37,1.35,1.35,0,0,1,.2.72v1.88a1.35,1.35,0,0,1-.2.72.73.73,0,0,1-.61.37h-1a.73.73,0,0,1-.61-.37A1.36,1.36,0,0,1,2.89,20.58Z"/><path class="cls-2" d="M23.75,20.58V18.7c0-.44.23-.81.52-.81h1c.28,0,.52.36.52.81v1.88c0,.44-.23.81-.52.81h-1c-.28,0-.52-.36-.52-.81"/><path class="cls-3" d="M24,18.7v1.88a.78.78,0,0,0,.11.42c0,.06.09.1.13.1h1s.08,0,.13-.1a.78.78,0,0,0,.11-.42V18.7a.78.78,0,0,0-.11-.41c0-.06-.09-.1-.13-.1h-1s-.08,0-.13.1a.78.78,0,0,0-.11.41m-.57,1.88V18.7a1.36,1.36,0,0,1,.2-.72.73.73,0,0,1,.61-.37h1a.73.73,0,0,1,.61.37,1.36,1.36,0,0,1,.2.72v1.88a1.36,1.36,0,0,1-.2.72.73.73,0,0,1-.61.37h-1a.73.73,0,0,1-.61-.37A1.36,1.36,0,0,1,23.46,20.58Z"/><path class="cls-2" d="M.8,15.93H28.19a.52.52,0,0,1,.52.52v1a.52.52,0,0,1-.52.52H.8a.52.52,0,0,1-.52-.52v-1a.52.52,0,0,1,.52-.52"/><path class="cls-3" d="M28.19,16.22H.8a.23.23,0,0,0-.15.06h0a.23.23,0,0,0-.07.16v1a.23.23,0,0,0,.23.23H28.19a.23.23,0,0,0,.16-.07h0a.23.23,0,0,0,.07-.16v-1a.23.23,0,0,0-.07-.16h0a.23.23,0,0,0-.16-.07M.8,15.65H28.19a.8.8,0,0,1,.57.24h0a.8.8,0,0,1,.24.57v1a.81.81,0,0,1-.8.8H.8a.81.81,0,0,1-.8-.8v-1a.8.8,0,0,1,.24-.57l0,0A.8.8,0,0,1,.8,15.65Z"/><path class="cls-4" d="M4.65,8.63h3.3a1.93,1.93,0,0,1,1.93,1.93v3.19a1.93,1.93,0,0,1-1.93,1.93H4.65a1.93,1.93,0,0,1-1.93-1.93V10.56A1.93,1.93,0,0,1,4.65,8.63"/><path class="cls-3" d="M7.95,8.91H4.65A1.65,1.65,0,0,0,3,10.56v3.19a1.64,1.64,0,0,0,.48,1.16h0a1.64,1.64,0,0,0,1.16.48h3.3A1.64,1.64,0,0,0,9.1,14.9h0a1.64,1.64,0,0,0,.48-1.16V10.56A1.65,1.65,0,0,0,7.95,8.91m-3.3-.57h3.3A2.21,2.21,0,0,1,9.51,9h0a2.21,2.21,0,0,1,.65,1.56v3.19a2.21,2.21,0,0,1-.65,1.56h0A2.21,2.21,0,0,1,7.95,16H4.65a2.21,2.21,0,0,1-1.56-.65h0a2.21,2.21,0,0,1-.65-1.56V10.56A2.22,2.22,0,0,1,4.65,8.34Z"/><path class="cls-5" d="M5.64,10.24H7.06a1.4,1.4,0,0,1,1.39,1.39v1.1a1.4,1.4,0,0,1-1.39,1.39H5.64a1.4,1.4,0,0,1-1.39-1.39v-1.1a1.4,1.4,0,0,1,1.39-1.39"/><path class="cls-3" d="M7.06,10.52H5.64a1.1,1.1,0,0,0-.77.31h0a1.1,1.1,0,0,0-.33.78v1.1a1.11,1.11,0,0,0,1.11,1.11H7.06a1.11,1.11,0,0,0,1.11-1.11v-1.1a1.11,1.11,0,0,0-1.11-1.11M5.64,9.95H7.06a1.68,1.68,0,0,1,1.68,1.68v1.1a1.67,1.67,0,0,1-.49,1.18h0a1.67,1.67,0,0,1-1.18.49H5.64a1.67,1.67,0,0,1-1.18-.49h0A1.67,1.67,0,0,1,4,12.73v-1.1a1.67,1.67,0,0,1,.49-1.19l0,0A1.67,1.67,0,0,1,5.64,9.95Z"/><path class="cls-1" d="M7.33,14.8a.29.29,0,0,1-.56.09L4.36.33A.29.29,0,0,1,4.93.24Z"/><path class="cls-4" d="M12.82,8.63h3.3A1.93,1.93,0,0,1,18,10.56v3.19a1.93,1.93,0,0,1-1.93,1.93h-3.3a1.93,1.93,0,0,1-1.93-1.93V10.56a1.93,1.93,0,0,1,1.93-1.93"/><path class="cls-3" d="M16.12,8.91h-3.3a1.65,1.65,0,0,0-1.64,1.64v3.19a1.64,1.64,0,0,0,.48,1.16h0a1.64,1.64,0,0,0,1.16.48h3.3a1.64,1.64,0,0,0,1.16-.48h0a1.64,1.64,0,0,0,.48-1.16V10.56a1.65,1.65,0,0,0-1.64-1.64m-3.3-.57h3.3A2.21,2.21,0,0,1,17.68,9h0a2.21,2.21,0,0,1,.65,1.56v3.19a2.21,2.21,0,0,1-.65,1.56h0a2.21,2.21,0,0,1-1.56.65h-3.3a2.21,2.21,0,0,1-1.56-.65h0a2.21,2.21,0,0,1-.65-1.56V10.56a2.22,2.22,0,0,1,2.21-2.21Z"/><path class="cls-5" d="M13.81,10.24h1.43a1.4,1.4,0,0,1,1.39,1.39v1.1a1.4,1.4,0,0,1-1.39,1.39H13.81a1.4,1.4,0,0,1-1.39-1.39v-1.1a1.4,1.4,0,0,1,1.39-1.39"/><path class="cls-3" d="M15.23,10.52H13.81a1.1,1.1,0,0,0-.77.31h0a1.1,1.1,0,0,0-.33.78v1.1a1.11,1.11,0,0,0,1.11,1.11h1.42a1.11,1.11,0,0,0,1.11-1.11v-1.1a1.11,1.11,0,0,0-1.11-1.11m-1.42-.57h1.42a1.68,1.68,0,0,1,1.68,1.68v1.1a1.67,1.67,0,0,1-.49,1.18h0a1.67,1.67,0,0,1-1.18.49H13.81a1.67,1.67,0,0,1-1.18-.49h0a1.67,1.67,0,0,1-.49-1.18v-1.1a1.67,1.67,0,0,1,.49-1.19l0,0A1.67,1.67,0,0,1,13.81,9.95Z"/><path class="cls-4" d="M20.92,8.63h3.3a1.93,1.93,0,0,1,1.93,1.93v3.19a1.93,1.93,0,0,1-1.93,1.93h-3.3A1.93,1.93,0,0,1,19,13.74V10.56a1.93,1.93,0,0,1,1.93-1.93"/><path class="cls-3" d="M24.22,8.91h-3.3a1.65,1.65,0,0,0-1.64,1.64v3.19a1.64,1.64,0,0,0,.48,1.16h0a1.64,1.64,0,0,0,1.16.48h3.3a1.64,1.64,0,0,0,1.16-.48h0a1.64,1.64,0,0,0,.48-1.16V10.56a1.65,1.65,0,0,0-1.64-1.64m-3.3-.57h3.3A2.21,2.21,0,0,1,25.78,9h0a2.21,2.21,0,0,1,.65,1.56v3.19a2.21,2.21,0,0,1-.65,1.56h0a2.21,2.21,0,0,1-1.56.65h-3.3a2.21,2.21,0,0,1-1.56-.65h0a2.21,2.21,0,0,1-.65-1.56V10.56a2.22,2.22,0,0,1,2.21-2.21Z"/><path class="cls-5" d="M21.92,10.24h1.43a1.4,1.4,0,0,1,1.39,1.39v1.1a1.4,1.4,0,0,1-1.39,1.39H21.92a1.4,1.4,0,0,1-1.39-1.39v-1.1a1.4,1.4,0,0,1,1.39-1.39"/><path class="cls-3" d="M23.34,10.52H21.92a1.1,1.1,0,0,0-.77.31h0a1.1,1.1,0,0,0-.33.78v1.1a1.11,1.11,0,0,0,1.11,1.11h1.42a1.11,1.11,0,0,0,1.11-1.11v-1.1a1.11,1.11,0,0,0-1.11-1.11m-1.42-.57h1.42A1.68,1.68,0,0,1,25,11.63v1.1a1.67,1.67,0,0,1-.49,1.18h0a1.67,1.67,0,0,1-1.18.49H21.92a1.67,1.67,0,0,1-1.18-.49h0a1.67,1.67,0,0,1-.49-1.18v-1.1a1.67,1.67,0,0,1,.49-1.19l0,0A1.67,1.67,0,0,1,21.92,9.95Z"/><path class="cls-4" d="M16.73,1.36H20A1.93,1.93,0,0,1,22,3.29V6.48A1.93,1.93,0,0,1,20,8.41h-3.3A1.93,1.93,0,0,1,14.8,6.48V3.29a1.93,1.93,0,0,1,1.93-1.93"/><path class="cls-3" d="M20,1.65h-3.3a1.65,1.65,0,0,0-1.64,1.64V6.48a1.64,1.64,0,0,0,.48,1.16h0a1.64,1.64,0,0,0,1.16.48H20a1.65,1.65,0,0,0,1.64-1.64V3.29A1.65,1.65,0,0,0,20,1.65m-3.3-.57H20a2.21,2.21,0,0,1,1.56.65h0a2.21,2.21,0,0,1,.65,1.56V6.48A2.22,2.22,0,0,1,20,8.69h-3.3A2.21,2.21,0,0,1,15.17,8h0a2.21,2.21,0,0,1-.65-1.56V3.29a2.22,2.22,0,0,1,2.21-2.21Z"/><path class="cls-5" d="M17.72,3h1.43a1.4,1.4,0,0,1,1.39,1.39v1.1a1.4,1.4,0,0,1-1.39,1.39H17.72a1.4,1.4,0,0,1-1.39-1.39V4.36A1.4,1.4,0,0,1,17.72,3"/><path class="cls-3" d="M19.15,3.26H17.72a1.1,1.1,0,0,0-.77.31h0a1.1,1.1,0,0,0-.33.78v1.1a1.11,1.11,0,0,0,1.11,1.11h1.42a1.11,1.11,0,0,0,1.11-1.11V4.36a1.11,1.11,0,0,0-1.11-1.11m-1.42-.57h1.42a1.68,1.68,0,0,1,1.68,1.68v1.1a1.67,1.67,0,0,1-.49,1.18h0a1.67,1.67,0,0,1-1.19.49H17.72a1.67,1.67,0,0,1-1.18-.49h0A1.67,1.67,0,0,1,16,5.46V4.36a1.67,1.67,0,0,1,.49-1.19l0,0A1.67,1.67,0,0,1,17.72,2.68Z"/><path class="cls-3" d="M28.64,21.3a.29.29,0,1,1,0,.57h-25a.29.29,0,0,1,0-.57Z"/></g></g></svg>