<?xml version="1.0" encoding="UTF-8" standalone="no"?>
<!-- Created with Inkscape (http://www.inkscape.org/) -->

<svg
   xmlns:dc="http://purl.org/dc/elements/1.1/"
   xmlns:cc="http://creativecommons.org/ns#"
   xmlns:rdf="http://www.w3.org/1999/02/22-rdf-syntax-ns#"
   xmlns:svg="http://www.w3.org/2000/svg"
   xmlns="http://www.w3.org/2000/svg"
   xmlns:sodipodi="http://sodipodi.sourceforge.net/DTD/sodipodi-0.dtd"
   xmlns:inkscape="http://www.inkscape.org/namespaces/inkscape"
   width="10.391525mm"
   height="10.144897mm"
   viewBox="0 0 10.391528 10.144895"
   version="1.1"
   id="svg5889"
   inkscape:version="0.92.3 (2405546, 2018-03-11)"
   sodipodi:docname="burger.svg">
  <defs
     id="defs5883">
    <clipPath
       clipPathUnits="userSpaceOnUse"
       id="clipPath2482">
      <path
         d="m 82.4526,204.093 h 5.0166 v -2.828 h -5.0166 z"
         id="path2480"
         inkscape:connector-curvature="0" />
    </clipPath>
    <clipPath
       clipPathUnits="userSpaceOnUse"
       id="clipPath1488">
      <path
         d="m 180.169,209.916 h 7.422 v -7.286 h -7.422 z"
         id="path1486"
         inkscape:connector-curvature="0" />
    </clipPath>
    <clipPath
       clipPathUnits="userSpaceOnUse"
       id="clipPath1994">
      <path
         d="m 138.246,160.184 h 1.687 v -15.909 h -1.687 z"
         id="path1992"
         inkscape:connector-curvature="0" />
    </clipPath>
  </defs>
  <sodipodi:namedview
     id="base"
     pagecolor="#ffffff"
     bordercolor="#666666"
     borderopacity="1.0"
     inkscape:pageopacity="0.0"
     inkscape:pageshadow="2"
     inkscape:zoom="3.06"
     inkscape:cx="48.21513"
     inkscape:cy="22.444798"
     inkscape:document-units="mm"
     inkscape:current-layer="layer1"
     showgrid="false"
     fit-margin-top="1"
     fit-margin-bottom="1"
     fit-margin-right="1"
     fit-margin-left="1"
     inkscape:window-width="1853"
     inkscape:window-height="1025"
     inkscape:window-x="67"
     inkscape:window-y="27"
     inkscape:window-maximized="1" />
  <metadata
     id="metadata5886">
    <rdf:RDF>
      <cc:Work
         rdf:about="">
        <dc:format>image/svg+xml</dc:format>
        <dc:type
           rdf:resource="http://purl.org/dc/dcmitype/StillImage" />
        <dc:title></dc:title>
      </cc:Work>
    </rdf:RDF>
  </metadata>
  <g
     inkscape:label="Capa 1"
     inkscape:groupmode="layer"
     id="layer1"
     transform="translate(-93.076415,-117.25628)">
    <g
       transform="matrix(0.35277777,0,0,-0.35277777,1.6066238,174.73346)"
       id="g13064">
      <g
         transform="translate(285.7246,144.457)"
         id="g1110">
        <path
           inkscape:connector-curvature="0"
           id="path1112"
           style="fill:#943227;fill-opacity:1;fill-rule:nonzero;stroke:none"
           d="m 0,0 c 0,-0.872 -0.709,-1.583 -1.584,-1.583 h -20.09 c -0.875,0 -1.586,0.711 -1.586,1.583 v 1.252 c 0,0.876 0.711,1.586 1.586,1.586 h 20.09 C -0.709,2.838 0,2.128 0,1.252 Z" />
      </g>
      <g
         transform="translate(276.1367,160.0928)"
         id="g1114">
        <path
           inkscape:connector-curvature="0"
           id="path1116"
           style="fill:#c97028;fill-opacity:1;fill-rule:nonzero;stroke:none"
           d="m 0,0 h -3.926 c -4.453,0 -8.166,-3.167 -9.01,-7.371 H 9.008 C 8.164,-3.167 4.451,0 0,0" />
      </g>
      <g
         transform="translate(272.2656,137.0049)"
         id="g1118">
        <path
           inkscape:connector-curvature="0"
           id="path1120"
           style="fill:#c97028;fill-opacity:1;fill-rule:nonzero;stroke:none"
           d="m 0,0 h 3.949 c 4.481,0 8.215,0.171 9.067,3.906 H -9.064 C -8.215,0.171 -4.48,0 0,0" />
      </g>
      <g
         transform="translate(285.7246,141.8926)"
         id="g1122">
        <path
           inkscape:connector-curvature="0"
           id="path1124"
           style="fill:#fdeab0;fill-opacity:1;fill-rule:nonzero;stroke:none"
           d="m 0,0 c 0,-0.543 -0.439,-0.981 -0.98,-0.981 h -21.297 c -0.541,0 -0.983,0.438 -0.983,0.981 0,0.541 0.442,0.981 0.983,0.981 H -0.98 C -0.439,0.981 0,0.541 0,0" />
      </g>
      <g
         transform="translate(285.6836,142.1631)"
         id="g1126">
        <path
           inkscape:connector-curvature="0"
           id="path1128"
           style="fill:#fffbe9;fill-opacity:1;fill-rule:nonzero;stroke:none"
           d="m 0,0 c -0.119,0.409 -0.492,0.711 -0.939,0.711 h -21.297 c -0.375,0 -0.696,-0.212 -0.862,-0.523" />
      </g>
      <g
         transform="translate(262.623,145.8887)"
         id="g1130">
        <path
           inkscape:connector-curvature="0"
           id="path1132"
           style="fill:#581019;fill-opacity:1;fill-rule:nonzero;stroke:none"
           d="m 0,0 c 0.357,0.165 0.74,0.266 1.059,0.525 0.582,0.472 1.414,-0.35 0.83,-0.827 -0.043,-0.036 -0.09,-0.064 -0.137,-0.095 0.01,-0.012 0.019,-0.027 0.027,-0.038 3.176,-0.228 6.389,0.328 9.545,0.596 1.953,0.165 3.91,0.121 5.867,0.09 1.926,0.104 3.864,0.128 5.782,0.196 -0.244,0.565 -0.803,0.959 -1.455,0.959 H 1.428 C 0.619,1.406 -0.047,0.8 -0.145,0.02 -0.096,0.011 -0.049,0.005 0,0" />
      </g>
      <g
         transform="translate(281.8984,143.6787)"
         id="g1134">
        <path
           inkscape:connector-curvature="0"
           id="path1136"
           style="fill:#631e17;fill-opacity:1;fill-rule:nonzero;stroke:none"
           d="M 0,0 C -2.838,0 -5.689,0.2 -8.523,0.119 -8.828,0.111 -9.135,0.106 -9.439,0.102 -9.592,0.088 -9.746,0.074 -9.902,0.059 c -0.096,-0.007 -0.178,0.008 -0.25,0.038 -1.905,-0.011 -3.813,0.023 -5.705,-0.117 -1.012,-0.073 -2.403,-0.23 -3.452,0.184 0.241,-0.57 0.803,-0.969 1.461,-0.969 h 20.09 c 0.535,0 1.01,0.266 1.295,0.674 C 2.398,-0.322 0.918,0 0,0" />
      </g>
      <g
         transform="translate(262.998,145.2705)"
         id="g1138">
        <path
           inkscape:connector-curvature="0"
           id="path1140"
           style="fill:#b03a2e;fill-opacity:1;fill-rule:nonzero;stroke:none"
           d="m 0,0 c 0.42,-0.167 0.852,-0.311 1.293,-0.406 0.203,-0.044 0.408,-0.086 0.615,-0.119 0.033,-0.003 0.069,-0.007 0.115,-0.012 0.954,-0.087 1.913,-0.098 2.87,-0.054 1.986,0.095 3.953,0.361 5.927,0.578 3.969,0.439 7.938,0.035 11.907,0.167 v 0.284 c 0,0.876 -0.709,1.586 -1.584,1.586 H 1.053 c -0.875,0 -1.586,-0.71 -1.586,-1.586 V 0.127 C -0.354,0.111 -0.176,0.071 0,0" />
      </g>
      <g
         transform="translate(284.7441,149.2871)"
         id="g1142">
        <path
           inkscape:connector-curvature="0"
           id="path1144"
           style="fill:#fcd635;fill-opacity:1;fill-rule:nonzero;stroke:none"
           d="m 0,0 h -21.297 c -0.541,0 -0.982,-0.44 -0.982,-0.981 0,-0.544 0.441,-0.982 0.982,-0.982 h 14.856 l 2.367,-2.366 c 0.185,-0.185 0.482,-0.185 0.668,0 l 2.365,2.366 H 0 c 0.541,0 0.98,0.438 0.98,0.982 C 0.98,-0.44 0.541,0 0,0" />
      </g>
      <g
         transform="translate(268.6133,148.4629)"
         id="g1146">
        <path
           inkscape:connector-curvature="0"
           id="path1148"
           style="fill:#fdea3c;fill-opacity:1;fill-rule:nonzero;stroke:none"
           d="m 0,0 c 2.105,-0.075 4.199,0.286 6.297,0.299 0.24,0.169 0.51,0.291 0.807,0.35 1.115,0.218 2.21,0.224 3.306,-0.118 0.813,-0.252 1.596,-0.596 2.436,-0.749 1.166,-0.212 2.797,-0.091 4.259,-0.046 0.004,0.035 0.006,0.07 0.006,0.107 0,0.541 -0.439,0.981 -0.98,0.981 H -5.166 C -5.613,0.824 -5.988,0.525 -6.107,0.119 -4.07,0.107 -2.035,0.071 0,0" />
      </g>
      <g
         transform="translate(285.2812,149.5615)"
         id="g1150">
        <path
           inkscape:connector-curvature="0"
           id="path1152"
           style="fill:#b62025;fill-opacity:1;fill-rule:nonzero;stroke:none"
           d="m 0,0 c 0,-0.194 -0.164,-0.353 -0.367,-0.353 h -22.084 c -0.201,0 -0.365,0.159 -0.365,0.353 v 1.176 c 0,0.194 0.164,0.351 0.365,0.351 H -0.367 C -0.164,1.527 0,1.37 0,1.176 Z" />
      </g>
      <g
         transform="translate(262.6934,150.1172)"
         id="g1154">
        <path
           inkscape:connector-curvature="0"
           id="path1156"
           style="fill:#e53a34;fill-opacity:1;fill-rule:nonzero;stroke:none"
           d="m 0,0 c 0.102,-0.007 0.379,-0.039 0.434,-0.042 0.16,-0.011 0.32,-0.017 0.482,-0.02 0.859,-0.008 1.721,0.04 2.574,0.127 1.746,0.178 3.483,0.503 5.237,0.613 2.277,0.139 4.613,-0.172 6.875,-0.395 2.263,-0.222 4.523,-0.438 6.798,-0.45 0.063,0 0.123,-0.006 0.188,-0.01 V 0.62 c 0,0.194 -0.164,0.352 -0.367,0.352 H 0.137 c -0.201,0 -0.366,-0.158 -0.366,-0.352 V 0.049 C -0.152,0.033 -0.078,0.014 0,0" />
      </g>
      <g
         transform="translate(262.9551,151.0322)"
         id="g1158">
        <path
           inkscape:connector-curvature="0"
           id="path1160"
           style="fill:#89c149;fill-opacity:1;fill-rule:nonzero;stroke:none"
           d="m 0,0 c -0.463,0 -0.836,0.373 -0.836,0.837 0,0.461 0.373,0.836 0.836,0.836 h 22.113 c 0.463,0 0.838,-0.375 0.838,-0.836 C 22.951,0.373 22.576,0 22.113,0 H 21.715 C 20.379,0 20.379,-1.249 19.041,-1.249 17.703,-1.249 17.703,0 16.365,0 15.029,0 15.029,-1.249 13.693,-1.249 12.354,-1.249 12.354,0 11.018,0 9.682,0 9.682,-1.249 8.344,-1.249 7.006,-1.249 7.006,0 5.67,0 4.332,0 4.332,-1.249 2.996,-1.249 1.66,-1.249 1.66,0 0.322,0 Z" />
      </g>
      <g
         transform="translate(285.8613,152.126)"
         id="g1162">
        <path
           inkscape:connector-curvature="0"
           id="path1164"
           style="fill:#acd480;fill-opacity:1;fill-rule:nonzero;stroke:none"
           d="m 0,0 c -0.109,0.335 -0.42,0.579 -0.793,0.579 h -22.113 c -0.36,0 -0.666,-0.229 -0.781,-0.55 C -15.799,0.053 -7.875,0.535 0,0" />
      </g>
      <g
         transform="translate(276.0156,160.0928)"
         id="g1166">
        <path
           inkscape:connector-curvature="0"
           id="path1168"
           style="fill:#eb974e;fill-opacity:1;fill-rule:nonzero;stroke:none"
           d="m 0,0 h -3.805 c -4.453,0 -8.166,-3.167 -9.009,-7.371 h 9.66 C 0.135,-5.315 0.479,-2.401 0,0" />
      </g>
      <g
         transform="translate(278.9844,147.3701)"
         id="g1170">
        <path
           inkscape:connector-curvature="0"
           id="path1172"
           style="fill:#fff077;fill-opacity:1;fill-rule:nonzero;stroke:none"
           d="m 0,0 2.125,-2.125 c 0.098,-0.097 0.098,-0.254 0,-0.351 -0.098,-0.096 -0.254,-0.096 -0.352,0 l -2.451,2.452" />
      </g>
      <g
         transform="translate(269.0137,156.21)"
         id="g1174">
        <path
           inkscape:connector-curvature="0"
           id="path1176"
           style="fill:#eeb179;fill-opacity:1;fill-rule:nonzero;stroke:none"
           d="M 0,0 C -1.064,-0.834 -2.238,-1.106 -2.627,-0.612 -3.014,-0.114 -2.463,0.959 -1.398,1.79 -0.334,2.624 0.844,2.894 1.23,2.399 1.615,1.904 1.066,0.83 0,0" />
      </g>
      <g
         transform="translate(269.2754,152.5059)"
         id="g1178">
        <path
           inkscape:connector-curvature="0"
           id="path1180"
           style="fill:#c4dfa6;fill-opacity:1;fill-rule:nonzero;stroke:none"
           d="m 0,0 c 0,-0.084 -0.867,-0.153 -1.936,-0.153 -1.068,0 -1.933,0.069 -1.933,0.153 0,0.084 0.865,0.153 1.933,0.153 C -0.867,0.153 0,0.084 0,0" />
      </g>
      <g
         transform="translate(273.4355,149.0107)"
         id="g1182">
        <path
           inkscape:connector-curvature="0"
           id="path1184"
           style="fill:#fff077;fill-opacity:1;fill-rule:nonzero;stroke:none"
           d="m 0,0 c 0,-0.086 -1.799,-0.155 -4.016,-0.155 -2.216,0 -4.013,0.069 -4.013,0.155 0,0.084 1.797,0.151 4.013,0.151 C -1.799,0.151 0,0.084 0,0" />
      </g>
      <g
         transform="translate(273.4355,147.1357)"
         id="g1186">
        <path
           inkscape:connector-curvature="0"
           id="path1188"
           style="fill:#e54c3c;fill-opacity:1;fill-rule:nonzero;stroke:none"
           d="m 0,0 c 0,-0.086 -1.799,-0.153 -4.016,-0.153 -2.216,0 -4.013,0.067 -4.013,0.153 0,0.085 1.797,0.154 4.013,0.154 C -1.799,0.154 0,0.085 0,0" />
      </g>
      <g
         transform="translate(273.4355,140.875)"
         id="g1190">
        <path
           inkscape:connector-curvature="0"
           id="path1192"
           style="fill:#eeb179;fill-opacity:1;fill-rule:nonzero;stroke:none"
           d="m 0,0 c 7.402,0 -1.799,-0.236 -4.016,-0.236 -2.216,0 -5.595,0.15 -5.595,0.236 0,0.084 3.379,0.069 5.595,0.069 C -1.799,0.069 -0.086,0 0,0" />
      </g>
      <g
         transform="translate(263.8242,139.376)"
         id="g1194">
        <path
           inkscape:connector-curvature="0"
           id="path1196"
           style="fill:#eb974e;fill-opacity:1;fill-rule:nonzero;stroke:none"
           d="m 0,0 c 1.443,-2.247 4.68,-2.371 8.441,-2.371 h 3.95 c 1.779,0 3.441,0.029 4.853,0.296 C 18.012,-1.081 18.09,0 18.09,0 Z" />
      </g>
      <g
         transform="translate(285.2812,140.9111)"
         id="g1198">
        <path
           inkscape:connector-curvature="0"
           id="path1200"
           style="fill:#c97028;fill-opacity:1;fill-rule:nonzero;stroke:none"
           d="m 0,0 h -22.08 c 0.135,-0.6 0.348,-1.105 0.623,-1.535 h 18.09 c 0,0 -0.078,-1.081 -0.846,-2.075 C -2.074,-3.205 -0.514,-2.249 0,0" />
      </g>
    </g>
  </g>
</svg>
