<?xml version="1.0" encoding="UTF-8" standalone="no"?>
<!-- Created with Inkscape (http://www.inkscape.org/) -->

<svg
   xmlns:dc="http://purl.org/dc/elements/1.1/"
   xmlns:cc="http://creativecommons.org/ns#"
   xmlns:rdf="http://www.w3.org/1999/02/22-rdf-syntax-ns#"
   xmlns:svg="http://www.w3.org/2000/svg"
   xmlns="http://www.w3.org/2000/svg"
   xmlns:sodipodi="http://sodipodi.sourceforge.net/DTD/sodipodi-0.dtd"
   xmlns:inkscape="http://www.inkscape.org/namespaces/inkscape"
   width="9.646245mm"
   height="9.3488474mm"
   viewBox="0 0 9.646245 9.3488473"
   version="1.1"
   id="svg5889"
   inkscape:version="0.92.3 (2405546, 2018-03-11)"
   sodipodi:docname="food-hot-dog.svg">
  <defs
     id="defs5883" />
  <sodipodi:namedview
     id="base"
     pagecolor="#ffffff"
     bordercolor="#666666"
     borderopacity="1.0"
     inkscape:pageopacity="0.0"
     inkscape:pageshadow="2"
     inkscape:zoom="3.06"
     inkscape:cx="94.132123"
     inkscape:cy="12.778706"
     inkscape:document-units="mm"
     inkscape:current-layer="layer1"
     showgrid="false"
     fit-margin-top="1"
     fit-margin-bottom="1"
     fit-margin-right="1"
     fit-margin-left="1"
     inkscape:window-width="1853"
     inkscape:window-height="1025"
     inkscape:window-x="67"
     inkscape:window-y="27"
     inkscape:window-maximized="1" />
  <metadata
     id="metadata5886">
    <rdf:RDF>
      <cc:Work
         rdf:about="">
        <dc:format>image/svg+xml</dc:format>
        <dc:type
           rdf:resource="http://purl.org/dc/dcmitype/StillImage" />
        <dc:title></dc:title>
      </cc:Work>
    </rdf:RDF>
  </metadata>
  <g
     inkscape:label="Capa 1"
     inkscape:groupmode="layer"
     id="layer1"
     transform="translate(-80.927543,-115.49483)">
    <g
       transform="matrix(0.35277777,0,0,-0.35277777,53.69771,244.54297)"
       id="g6181">
      <g
         transform="translate(96.7031,359.6978)"
         id="g2608">
        <path
           inkscape:connector-curvature="0"
           id="path2610"
           style="fill:#f3ca96;fill-opacity:1;fill-rule:nonzero;stroke:none"
           d="m 0,0 c 0,0 -0.956,4.298 -3.821,3.044 -2.865,-1.253 -4.059,-4.238 -5.671,-6.208 -1.611,-1.97 -7.999,-5.433 -7.104,-8.059 0.897,-2.626 2.687,-3.88 5.552,-3.104 C -8.179,-13.551 1.314,-0.896 0,0" />
      </g>
      <g
         transform="translate(97.1538,359.248)"
         id="g2612">
        <path
           inkscape:connector-curvature="0"
           id="path2614"
           style="fill:#f6c17d;fill-opacity:1;fill-rule:nonzero;stroke:none"
           d="m 0,0 c 0,0 -0.956,4.298 -3.82,3.044 -2.867,-1.253 -4.06,-4.239 -5.673,-6.208 -1.611,-1.97 -7.999,-5.433 -7.103,-8.059 0.895,-2.627 2.687,-3.881 5.552,-3.104 C -8.179,-13.551 1.313,-0.896 0,0" />
      </g>
      <g
         transform="translate(93.2607,360.7583)"
         id="g2616">
        <path
           inkscape:connector-curvature="0"
           id="path2618"
           style="fill:#90ab3d;fill-opacity:1;fill-rule:nonzero;stroke:none"
           d="m 0,0 c 0.243,0.263 0.653,0.278 0.916,0.034 0.263,-0.243 0.278,-0.653 0.035,-0.917 l -11.657,-12.573 c -0.243,-0.262 -0.654,-0.278 -0.916,-0.035 -0.263,0.244 -0.279,0.654 -0.035,0.917 l 0.21,0.228 c 0.706,0.76 -0.005,1.419 0.7,2.179 0.705,0.76 1.416,0.101 2.12,0.862 0.705,0.76 -0.005,1.419 0.699,2.179 0.705,0.76 1.416,0.102 2.12,0.862 0.705,0.76 -0.005,1.418 0.7,2.178 0.704,0.761 1.414,0.102 2.119,0.862 0.705,0.761 -0.005,1.419 0.699,2.179 0.705,0.76 1.415,0.102 2.121,0.862 z" />
      </g>
      <g
         transform="translate(82.8569,347.6729)"
         id="g2620">
        <path
           inkscape:connector-curvature="0"
           id="path2622"
           style="fill:#cd5027;fill-opacity:1;fill-rule:nonzero;stroke:none"
           d="m 0,0 c 4.417,6.89 12.297,12.775 13.85,13.252 0.499,0.154 0.914,0.084 1.25,-0.08 -0.379,0.4 -0.988,0.783 -1.837,0.521 C 11.71,13.216 3.831,7.331 -0.587,0.44 c 0,0 -3.163,-3.854 -1.074,-5.372 0.122,-0.089 0.239,-0.166 0.353,-0.234 C -2.899,-3.534 0,0 0,0" />
      </g>
      <g
         transform="translate(84.7451,346.4141)"
         id="g2624">
        <path
           inkscape:connector-curvature="0"
           id="path2626"
           style="fill:#bc2826;fill-opacity:1;fill-rule:nonzero;stroke:none"
           d="m 0,0 c 4.364,6.807 12.104,12.629 13.787,13.229 -0.019,0.182 -0.051,0.358 -0.103,0.528 0,0 -0.157,0.343 -0.472,0.674 -0.336,0.164 -0.752,0.234 -1.251,0.08 C 10.409,14.034 2.529,8.149 -1.888,1.259 c 0,0 -2.899,-3.534 -1.308,-5.166 0.576,-0.347 1.032,-0.427 1.438,-0.328 C -2.025,-2.471 0,0 0,0" />
      </g>
      <g
         transform="translate(85.5532,344.4131)"
         id="g2628">
        <path
           inkscape:connector-curvature="0"
           id="path2630"
           style="fill:#a52922;fill-opacity:1;fill-rule:nonzero;stroke:none"
           d="M 0,0 C 1.612,1.496 13.459,10.32 12.979,15.229 11.296,14.63 3.556,8.808 -0.808,2.001 c 0,0 -2.025,-2.471 -1.758,-4.235 C -1.703,-2.023 -1.072,-0.996 0,0" />
      </g>
      <g
         transform="translate(85.1953,345.7261)"
         id="g2632">
        <path
           inkscape:connector-curvature="0"
           id="path2634"
           style="fill:#f3ca96;fill-opacity:1;fill-rule:nonzero;stroke:none"
           d="m 0,0 c 1.492,2.268 13.192,14.088 13.192,14.088 0.23,0.233 0.795,0.468 1.426,0.529 -0.846,0.087 -1.722,-0.224 -2.023,-0.529 0,0 -11.7,-11.82 -13.193,-14.088 C -1.807,-1.838 0.237,-3.518 2.581,-3.36 0.506,-3.227 -1.105,-1.68 0,0" />
      </g>
      <g
         transform="translate(100.4673,360.1821)"
         id="g2636">
        <path
           inkscape:connector-curvature="0"
           id="path2638"
           style="fill:#d67f42;fill-opacity:1;fill-rule:nonzero;stroke:none"
           d="m 0,0 c 0.366,-0.848 0.349,-2.24 -0.451,-4.444 -2.447,-6.745 -8.716,-10.566 -11.581,-11.939 -0.544,-0.26 -1.108,-0.398 -1.657,-0.435 -0.656,0.042 -1.266,0.226 -1.758,0.51 0.419,-0.83 1.502,-1.428 2.756,-1.508 0.548,0.037 1.113,0.174 1.657,0.434 2.866,1.374 9.134,5.194 11.581,11.94 C 1.832,-1.903 1.1,-0.458 0,0" />
      </g>
      <g
         transform="translate(88.4351,343.7993)"
         id="g2640">
        <path
           inkscape:connector-curvature="0"
           id="path2642"
           style="fill:#e48e4b;fill-opacity:1;fill-rule:nonzero;stroke:none"
           d="m 0,0 c 2.865,1.373 9.134,5.193 11.582,11.938 0.799,2.205 0.816,3.597 0.45,4.445 -0.208,0.085 -0.43,0.137 -0.654,0.16 -0.63,-0.06 -1.196,-0.295 -1.425,-0.528 0,0 -11.701,-11.82 -13.193,-14.088 -0.437,-0.665 -0.448,-1.308 -0.175,-1.852 0.493,-0.284 1.102,-0.468 1.758,-0.51 C -1.108,-0.398 -0.544,-0.26 0,0" />
      </g>
      <g
         transform="translate(80.6514,345.2783)"
         id="g2644">
        <path
           inkscape:connector-curvature="0"
           id="path2646"
           style="fill:#ffe170;fill-opacity:1;fill-rule:nonzero;stroke:none"
           d="M 0,0 C 0.27,0.271 0.708,0.273 0.98,0.003 1.186,-0.2 1.474,-0.422 1.686,-0.326 2.238,-0.075 2.742,1.438 2.666,2.617 2.617,3.363 2.642,4.122 3.143,4.626 3.726,5.212 4.64,5.159 5.905,5.084 6.184,5.068 6.553,5.081 6.725,5.236 c 0.263,0.239 0.293,0.977 0.323,1.758 0.01,0.233 0.019,0.476 0.035,0.725 0.062,0.994 0.193,1.648 0.679,2.049 0.549,0.45 1.261,0.355 2.34,0.211 l 0.033,-0.005 c 0.655,-0.087 0.904,-0.039 0.981,-0.015 0.025,0.104 0.025,0.343 0.025,0.522 0,0.119 -0.005,0.247 -0.012,0.379 -0.029,0.69 -0.067,1.549 0.527,2.076 0.351,0.31 0.83,0.418 1.426,0.318 0.193,-0.032 0.668,-0.111 0.876,-0.097 0.022,0.085 0.048,0.271 0.048,0.668 0,0.737 0.226,1.247 0.67,1.516 0.458,0.277 1.006,0.178 1.344,0.006 -0.061,0.143 -0.166,0.268 -0.314,0.346 -0.337,0.175 -0.895,0.282 -1.36,0.001 -0.444,-0.269 -0.669,-0.779 -0.669,-1.516 0,-0.397 -0.027,-0.583 -0.048,-0.668 -0.209,-0.015 -0.684,0.066 -0.876,0.097 -0.596,0.1 -1.075,-0.007 -1.426,-0.318 -0.595,-0.527 -0.558,-1.386 -0.527,-2.076 0.006,-0.133 0.012,-0.26 0.012,-0.379 0,-0.179 0,-0.418 -0.026,-0.522 C 10.709,10.289 10.46,10.24 9.805,10.328 L 9.771,10.332 C 8.693,10.476 7.981,10.571 7.433,10.12 6.947,9.721 6.815,9.067 6.753,8.072 6.737,7.822 6.728,7.581 6.718,7.348 6.688,6.566 6.659,5.829 6.395,5.59 6.224,5.434 5.854,5.421 5.575,5.437 4.31,5.511 3.396,5.565 2.813,4.98 2.313,4.476 2.288,3.715 2.336,2.97 2.412,1.791 1.909,0.278 1.357,0.027 1.145,-0.069 0.855,0.153 0.65,0.357 0.379,0.626 -0.061,0.625 -0.33,0.353 -0.6,0.082 -0.598,-0.357 -0.326,-0.626 -0.253,-0.698 -0.182,-0.763 -0.111,-0.823 -0.258,-0.561 -0.223,-0.224 0,0" />
      </g>
      <g
         transform="translate(82.5815,344.0444)"
         id="g2648">
        <path
           inkscape:connector-curvature="0"
           id="path2650"
           style="fill:#ffd352;fill-opacity:1;fill-rule:nonzero;stroke:none"
           d="m 0,0 c 1.369,0.622 1.876,2.93 1.789,4.293 -0.051,0.79 0.064,0.93 0.077,0.943 0.142,0.143 1.079,0.089 1.697,0.052 0.804,-0.049 1.403,0.119 1.833,0.509 0.694,0.629 0.734,1.649 0.777,2.729 0.009,0.223 0.018,0.455 0.034,0.693 0.05,0.834 0.144,1.026 0.166,1.058 0.141,0.068 0.749,-0.013 1.286,-0.085 l 0.033,-0.004 c 1.053,-0.14 1.68,-0.045 2.094,0.318 0.481,0.421 0.481,1.027 0.481,1.563 0,0.137 -0.006,0.285 -0.014,0.437 -0.011,0.278 -0.036,0.855 0.053,0.972 0,10e-4 0.074,0.032 0.288,-0.004 0.769,-0.128 1.495,-0.248 2.016,0.193 0.483,0.408 0.522,1.086 0.522,1.745 0,0.128 0.011,0.217 0.022,0.276 0.336,-0.161 0.74,-0.028 0.914,0.304 0.1,0.19 0.099,0.405 0.022,0.589 -0.338,0.171 -0.886,0.271 -1.344,-0.006 -0.444,-0.269 -0.67,-0.78 -0.67,-1.516 0,-0.397 -0.026,-0.583 -0.048,-0.668 -0.209,-0.015 -0.683,0.065 -0.876,0.097 -0.596,0.1 -1.075,-0.009 -1.426,-0.319 -0.595,-0.526 -0.557,-1.385 -0.527,-2.075 0.007,-0.133 0.012,-0.261 0.012,-0.379 0,-0.179 0,-0.418 -0.025,-0.522 C 9.109,11.169 8.86,11.121 8.205,11.208 L 8.171,11.212 C 7.093,11.357 6.38,11.452 5.832,11.001 5.346,10.601 5.215,9.947 5.153,8.953 5.137,8.704 5.127,8.461 5.118,8.228 5.087,7.447 5.058,6.708 4.795,6.47 4.623,6.315 4.254,6.302 3.975,6.318 2.709,6.393 1.795,6.446 1.213,5.86 0.712,5.356 0.687,4.597 0.736,3.851 0.812,2.672 0.308,1.159 -0.244,0.908 -0.456,0.812 -0.745,1.034 -0.95,1.237 -1.222,1.507 -1.661,1.505 -1.93,1.234 -2.153,1.01 -2.188,0.673 -2.042,0.411 c 0.509,-0.43 0.976,-0.561 1.355,-0.561 0.285,0 0.52,0.073 0.687,0.15" />
      </g>
    </g>
  </g>
</svg>
