<?xml version="1.0" encoding="UTF-8" standalone="no"?>
<!-- Created with Inkscape (http://www.inkscape.org/) -->

<svg
   xmlns:dc="http://purl.org/dc/elements/1.1/"
   xmlns:cc="http://creativecommons.org/ns#"
   xmlns:rdf="http://www.w3.org/1999/02/22-rdf-syntax-ns#"
   xmlns:svg="http://www.w3.org/2000/svg"
   xmlns="http://www.w3.org/2000/svg"
   xmlns:sodipodi="http://sodipodi.sourceforge.net/DTD/sodipodi-0.dtd"
   xmlns:inkscape="http://www.inkscape.org/namespaces/inkscape"
   width="11.183877mm"
   height="11.828638mm"
   viewBox="0 0 11.18388 11.828634"
   version="1.1"
   id="svg5889"
   inkscape:version="0.92.3 (2405546, 2018-03-11)"
   sodipodi:docname="pizza-food.svg">
  <defs
     id="defs5883">
    <clipPath
       clipPathUnits="userSpaceOnUse"
       id="clipPath2482">
      <path
         d="m 82.4526,204.093 h 5.0166 v -2.828 h -5.0166 z"
         id="path2480"
         inkscape:connector-curvature="0" />
    </clipPath>
    <clipPath
       clipPathUnits="userSpaceOnUse"
       id="clipPath1488">
      <path
         d="m 180.169,209.916 h 7.422 v -7.286 h -7.422 z"
         id="path1486"
         inkscape:connector-curvature="0" />
    </clipPath>
    <clipPath
       clipPathUnits="userSpaceOnUse"
       id="clipPath1994">
      <path
         d="m 138.246,160.184 h 1.687 v -15.909 h -1.687 z"
         id="path1992"
         inkscape:connector-curvature="0" />
    </clipPath>
  </defs>
  <sodipodi:namedview
     id="base"
     pagecolor="#ffffff"
     bordercolor="#666666"
     borderopacity="1.0"
     inkscape:pageopacity="0.0"
     inkscape:pageshadow="2"
     inkscape:zoom="3.06"
     inkscape:cx="32.367946"
     inkscape:cy="20.457911"
     inkscape:document-units="mm"
     inkscape:current-layer="layer1"
     showgrid="false"
     fit-margin-top="1"
     fit-margin-bottom="1"
     fit-margin-right="1"
     fit-margin-left="1"
     inkscape:window-width="1853"
     inkscape:window-height="1025"
     inkscape:window-x="67"
     inkscape:window-y="27"
     inkscape:window-maximized="1" />
  <metadata
     id="metadata5886">
    <rdf:RDF>
      <cc:Work
         rdf:about="">
        <dc:format>image/svg+xml</dc:format>
        <dc:type
           rdf:resource="http://purl.org/dc/dcmitype/StillImage" />
        <dc:title></dc:title>
      </cc:Work>
    </rdf:RDF>
  </metadata>
  <g
     inkscape:label="Capa 1"
     inkscape:groupmode="layer"
     id="layer1"
     transform="translate(-97.269317,-115.04684)">
    <g
       transform="matrix(0.35277777,0,0,-0.35277777,-58.416312,173.36619)"
       id="g13612">
      <g
         transform="translate(468.166,153.1348)"
         id="g392">
        <path
           inkscape:connector-curvature="0"
           id="path394"
           style="fill:#b62025;fill-opacity:1;fill-rule:nonzero;stroke:none"
           d="m 0,0 1.318,2.338 c 0.321,0.41 0.34,0.92 0.096,1.324 -0.109,0.18 -0.266,0.337 -0.473,0.458 0,0 -0.507,0.288 -1.337,0.712 -1.299,0.751 -2.692,1.378 -4.157,1.859 -1.775,0.678 -3.73,1.256 -5.453,1.375 -1.471,0.106 -3.113,-0.099 -4.732,-0.454 -2.948,-0.407 -5.707,-1.386 -8.151,-2.825 -0.295,-0.136 -0.463,-0.218 -0.463,-0.218 -0.175,-0.088 -0.318,-0.201 -0.427,-0.333 -0.326,-0.394 0.152,-1.002 0.482,-1.461 l 1.801,-3.274 c 3.225,2.056 7.053,3.245 11.16,3.245 C -6.574,2.746 -3.045,1.747 0,0" />
      </g>
      <g
         transform="translate(457.9687,135.0557)"
         id="g396">
        <path
           inkscape:connector-curvature="0"
           id="path398"
           style="fill:#ffd641;fill-opacity:1;fill-rule:nonzero;stroke:none"
           d="m 0,0 10.551,18.707 c -2.785,2.037 -7.031,3.749 -10.793,3.749 -4.11,0 -8.412,-1.154 -11.676,-3.749 L -1.65,0.036 C -1.207,-0.578 -0.465,-0.597 0,0" />
      </g>
      <g
         transform="translate(447.3789,154.5508)"
         id="g400">
        <path
           inkscape:connector-curvature="0"
           id="path402"
           style="fill:#ffde81;fill-opacity:1;fill-rule:nonzero;stroke:none"
           d="m 0,0 10.262,-18.812 c 0.181,-0.328 0.06,-0.738 -0.266,-0.917 L 9.898,-19.783 C 9.57,-19.963 9.16,-19.845 8.98,-19.518 l -10.308,18.73" />
      </g>
      <g
         transform="translate(460.4375,143.7266)"
         id="g404">
        <path
           inkscape:connector-curvature="0"
           id="path406"
           style="fill:#d72f2b;fill-opacity:1;fill-rule:nonzero;stroke:none"
           d="m 0,0 c 0,-1.809 -1.465,-3.274 -3.273,-3.274 -1.807,0 -3.272,1.465 -3.272,3.274 0,1.808 1.465,3.273 3.272,3.273 C -1.465,3.273 0,1.808 0,0" />
      </g>
      <g
         transform="translate(455.666,151.3799)"
         id="g408">
        <path
           inkscape:connector-curvature="0"
           id="path410"
           style="fill:#d72f2b;fill-opacity:1;fill-rule:nonzero;stroke:none"
           d="m 0,0 c 0,-1.808 -1.465,-3.272 -3.271,-3.272 -1.811,0 -3.276,1.464 -3.276,3.272 0,1.81 1.465,3.274 3.276,3.274 C -1.465,3.274 0,1.81 0,0" />
      </g>
      <g
         transform="translate(452.2578,153.4746)"
         id="g412">
        <path
           inkscape:connector-curvature="0"
           id="path414"
           style="fill:#e86060;fill-opacity:1;fill-rule:nonzero;stroke:none"
           d="m 0,0 c 0.312,-0.414 0.068,-1.126 -0.549,-1.589 -0.613,-0.466 -1.365,-0.503 -1.678,-0.088 -0.312,0.416 -0.068,1.127 0.545,1.59 C -1.066,0.377 -0.314,0.415 0,0" />
      </g>
      <g
         transform="translate(465.209,151.3799)"
         id="g416">
        <path
           inkscape:connector-curvature="0"
           id="path418"
           style="fill:#d72f2b;fill-opacity:1;fill-rule:nonzero;stroke:none"
           d="m 0,0 c 0,-1.808 -1.465,-3.272 -3.271,-3.272 -1.809,0 -3.276,1.464 -3.276,3.272 0,1.81 1.467,3.274 3.276,3.274 C -1.465,3.274 0,1.81 0,0" />
      </g>
      <g
         transform="translate(462.2637,153.4746)"
         id="g420">
        <path
           inkscape:connector-curvature="0"
           id="path422"
           style="fill:#e86060;fill-opacity:1;fill-rule:nonzero;stroke:none"
           d="m 0,0 c 0.312,-0.414 0.068,-1.126 -0.545,-1.589 -0.615,-0.466 -1.367,-0.503 -1.68,-0.088 -0.312,0.416 -0.068,1.127 0.547,1.59 C -1.064,0.377 -0.312,0.415 0,0" />
      </g>
      <g
         transform="translate(457.2832,146.0879)"
         id="g424">
        <path
           inkscape:connector-curvature="0"
           id="path426"
           style="fill:#e86060;fill-opacity:1;fill-rule:nonzero;stroke:none"
           d="m 0,0 c 0.312,-0.414 0.068,-1.126 -0.547,-1.589 -0.617,-0.465 -1.367,-0.503 -1.68,-0.086 -0.312,0.413 -0.068,1.127 0.545,1.59 C -1.066,0.379 -0.314,0.417 0,0" />
      </g>
      <g
         transform="translate(446.0547,154.5381)"
         id="g428">
        <path
           inkscape:connector-curvature="0"
           id="path430"
           style="fill:#bd3a26;fill-opacity:1;fill-rule:nonzero;stroke:none"
           d="M 0,0 C -0.605,0.042 -0.883,0.638 -1.252,1.188 -1.887,2.141 -1.658,3.4 -0.719,4.046 3.232,6.758 7.838,8.013 12.604,7.674 16.348,7.409 19.955,6.137 23.035,3.996 23.969,3.348 24.205,2.051 23.561,1.101 22.922,0.151 22.404,-0.416 21.471,0.232 18.992,1.956 15.326,3.304 12.307,3.518 8.469,3.791 4.477,2.537 1.295,0.352 0.9,0.082 0.443,-0.034 0,0" />
      </g>
      <g
         transform="translate(445.791,154.7197)"
         id="g432">
        <path
           inkscape:connector-curvature="0"
           id="path434"
           style="fill:#f2b457;fill-opacity:1;fill-rule:nonzero;stroke:none"
           d="M 0,0 C -0.617,0.046 -0.902,0.646 -1.275,1.199 -1.924,2.157 -1.695,3.423 -0.738,4.07 3.289,6.792 7.982,8.048 12.84,7.705 16.66,7.434 20.34,6.149 23.48,3.996 24.436,3.343 24.676,2.038 24.023,1.085 23.369,0.134 22.846,-0.439 21.891,0.215 19.365,1.95 15.621,3.31 12.543,3.527 8.631,3.805 4.562,2.548 1.32,0.356 0.918,0.082 0.453,-0.03 0,0" />
      </g>
      <g
         transform="translate(445.8027,156.3574)"
         id="g436">
        <path
           inkscape:connector-curvature="0"
           id="path438"
           style="fill:#f9ce66;fill-opacity:1;fill-rule:nonzero;stroke:none"
           d="m 0,0 c -0.277,0 -0.553,0.119 -0.744,0.347 -0.344,0.41 -0.291,1.021 0.121,1.366 0.238,0.2 5.945,4.892 13.916,3.955 C 13.826,5.605 14.207,5.123 14.145,4.589 14.082,4.058 13.6,3.674 13.068,3.741 5.918,4.58 0.674,0.269 0.621,0.227 0.441,0.074 0.221,0 0,0" />
      </g>
      <g
         transform="translate(452.9824,160.9893)"
         id="g440">
        <path
           inkscape:connector-curvature="0"
           id="path442"
           style="fill:#ffde81;fill-opacity:1;fill-rule:nonzero;stroke:none"
           d="m 0,0 c 0.09,-0.336 -0.814,-0.874 -2.023,-1.202 -1.207,-0.327 -2.262,-0.323 -2.354,0.013 -0.09,0.335 0.816,0.875 2.023,1.204 C -1.145,0.341 -0.09,0.336 0,0" />
      </g>
    </g>
  </g>
</svg>
