<?xml version="1.0" encoding="UTF-8" standalone="no"?>
<!-- Created with Inkscape (http://www.inkscape.org/) -->

<svg
   xmlns:dc="http://purl.org/dc/elements/1.1/"
   xmlns:cc="http://creativecommons.org/ns#"
   xmlns:rdf="http://www.w3.org/1999/02/22-rdf-syntax-ns#"
   xmlns:svg="http://www.w3.org/2000/svg"
   xmlns="http://www.w3.org/2000/svg"
   xmlns:sodipodi="http://sodipodi.sourceforge.net/DTD/sodipodi-0.dtd"
   xmlns:inkscape="http://www.inkscape.org/namespaces/inkscape"
   width="9.0947218mm"
   height="10.152679mm"
   viewBox="0 0 9.0947226 10.152678"
   version="1.1"
   id="svg5889"
   inkscape:version="0.92.3 (2405546, 2018-03-11)"
   sodipodi:docname="potatoes.svg">
  <defs
     id="defs5883">
    <clipPath
       clipPathUnits="userSpaceOnUse"
       id="clipPath2482">
      <path
         d="m 82.4526,204.093 h 5.0166 v -2.828 h -5.0166 z"
         id="path2480"
         inkscape:connector-curvature="0" />
    </clipPath>
    <clipPath
       clipPathUnits="userSpaceOnUse"
       id="clipPath1488">
      <path
         d="m 180.169,209.916 h 7.422 v -7.286 h -7.422 z"
         id="path1486"
         inkscape:connector-curvature="0" />
    </clipPath>
  </defs>
  <sodipodi:namedview
     id="base"
     pagecolor="#ffffff"
     bordercolor="#666666"
     borderopacity="1.0"
     inkscape:pageopacity="0.0"
     inkscape:pageshadow="2"
     inkscape:zoom="3.06"
     inkscape:cx="48.382159"
     inkscape:cy="14.115795"
     inkscape:document-units="mm"
     inkscape:current-layer="layer1"
     showgrid="false"
     fit-margin-top="1"
     fit-margin-bottom="1"
     fit-margin-right="1"
     fit-margin-left="1"
     inkscape:window-width="1853"
     inkscape:window-height="1025"
     inkscape:window-x="67"
     inkscape:window-y="27"
     inkscape:window-maximized="1" />
  <metadata
     id="metadata5886">
    <rdf:RDF>
      <cc:Work
         rdf:about="">
        <dc:format>image/svg+xml</dc:format>
        <dc:type
           rdf:resource="http://purl.org/dc/dcmitype/StillImage" />
        <dc:title></dc:title>
      </cc:Work>
    </rdf:RDF>
  </metadata>
  <g
     inkscape:label="Capa 1"
     inkscape:groupmode="layer"
     id="layer1"
     transform="translate(-93.032222,-115.04478)">
    <g
       transform="matrix(0.35277777,0,0,-0.35277777,0.91399744,192.30184)"
       id="g11519">
      <g
         transform="translate(268.5957,204.8437)"
         id="g1002">
        <path
           inkscape:connector-curvature="0"
           id="path1004"
           style="fill:#f1c218;fill-opacity:1;fill-rule:nonzero;stroke:none"
           d="m 0,0 c 0.029,-0.14 -0.059,-0.278 -0.199,-0.31 l -1.965,-0.431 c -0.141,-0.03 -0.279,0.057 -0.309,0.198 l -2.16,9.84 c -0.029,0.141 0.059,0.279 0.199,0.309 l 1.965,0.433 c 0.141,0.029 0.28,-0.058 0.311,-0.198 z" />
      </g>
      <g
         transform="translate(269.3398,205.8437)"
         id="g1006">
        <path
           inkscape:connector-curvature="0"
           id="path1008"
           style="fill:#f1c218;fill-opacity:1;fill-rule:nonzero;stroke:none"
           d="m 0,0 c 0.006,-0.144 -0.109,-0.265 -0.252,-0.271 l -2.01,-0.072 c -0.144,-0.004 -0.263,0.11 -0.267,0.252 l -0.36,10.066 c -0.004,0.145 0.108,0.265 0.25,0.27 l 2.01,0.073 c 0.145,0.003 0.264,-0.109 0.27,-0.251 z" />
      </g>
      <g
         transform="translate(270.8379,204.4561)"
         id="g1010">
        <path
           inkscape:connector-curvature="0"
           id="path1012"
           style="fill:#f1c218;fill-opacity:1;fill-rule:nonzero;stroke:none"
           d="M 0,0 C 0.006,-0.145 -0.107,-0.264 -0.25,-0.269 L -2.26,-0.34 c -0.144,-0.006 -0.263,0.107 -0.269,0.251 L -2.887,9.977 c -0.006,0.143 0.106,0.264 0.25,0.268 l 2.01,0.072 c 0.145,0.006 0.264,-0.107 0.268,-0.249 z" />
      </g>
      <g
         transform="translate(273.0957,204.0479)"
         id="g1014">
        <path
           inkscape:connector-curvature="0"
           id="path1016"
           style="fill:#f1c218;fill-opacity:1;fill-rule:nonzero;stroke:none"
           d="m 0,0 c -0.004,-0.145 -0.121,-0.259 -0.266,-0.257 l -2.011,0.028 c -0.145,0.003 -0.258,0.12 -0.254,0.264 l 0.158,11.016 c 0.002,0.143 0.119,0.257 0.262,0.255 l 2.013,-0.029 c 0.143,0 0.258,-0.119 0.256,-0.262 z" />
      </g>
      <g
         transform="translate(276.0234,205.7393)"
         id="g1018">
        <path
           inkscape:connector-curvature="0"
           id="path1020"
           style="fill:#f1c218;fill-opacity:1;fill-rule:nonzero;stroke:none"
           d="m 0,0 c -0.002,-0.144 -0.119,-0.261 -0.266,-0.257 l -2.009,0.029 c -0.143,0.001 -0.258,0.119 -0.254,0.263 l 0.144,10.071 c 0,0.145 0.121,0.26 0.264,0.258 l 2.01,-0.031 c 0.146,0 0.259,-0.119 0.257,-0.263 z" />
      </g>
      <g
         transform="translate(275.9863,203.2891)"
         id="g1022">
        <path
           inkscape:connector-curvature="0"
           id="path1024"
           style="fill:#f1c218;fill-opacity:1;fill-rule:nonzero;stroke:none"
           d="m 0,0 c -0.002,-0.146 -0.121,-0.259 -0.264,-0.258 l -2.009,0.029 c -0.145,0.002 -0.26,0.122 -0.258,0.263 l 0.146,10.075 c 0,0.143 0.119,0.256 0.262,0.254 l 2.012,-0.029 c 0.144,-10e-4 0.259,-0.12 0.256,-0.262 z" />
      </g>
      <g
         transform="translate(278.8613,204.8691)"
         id="g1026">
        <path
           inkscape:connector-curvature="0"
           id="path1028"
           style="fill:#f1c218;fill-opacity:1;fill-rule:nonzero;stroke:none"
           d="m 0,0 c -0.004,-0.145 -0.121,-0.259 -0.264,-0.257 l -2.011,0.029 c -0.145,0.002 -0.258,0.121 -0.256,0.264 l 0.144,10.073 c 0.002,0.145 0.119,0.257 0.264,0.255 l 2.012,-0.029 c 0.142,-0.002 0.257,-0.118 0.256,-0.263 z" />
      </g>
      <g
         transform="translate(281.1094,205.083)"
         id="g1030">
        <path
           inkscape:connector-curvature="0"
           id="path1032"
           style="fill:#f1c218;fill-opacity:1;fill-rule:nonzero;stroke:none"
           d="m 0,0 c -0.01,-0.142 -0.137,-0.249 -0.279,-0.237 l -2.004,0.17 c -0.143,0.01 -0.25,0.135 -0.238,0.279 l 0.843,10.04 c 0.012,0.142 0.139,0.249 0.282,0.234 L 0.609,10.32 c 0.143,-0.012 0.25,-0.138 0.237,-0.28 z" />
      </g>
      <g
         transform="translate(269.3047,202.96)"
         id="g1034">
        <path
           inkscape:connector-curvature="0"
           id="path1036"
           style="fill:#fadf00;fill-opacity:1;fill-rule:nonzero;stroke:none"
           d="m 0,0 c 0.018,-0.145 -0.082,-0.274 -0.223,-0.294 l -1.994,-0.274 c -0.14,-0.018 -0.273,0.081 -0.293,0.224 l -1.369,9.978 c -0.019,0.143 0.08,0.275 0.225,0.294 l 1.99,0.272 c 0.144,0.02 0.275,-0.08 0.293,-0.221 z" />
      </g>
      <g
         transform="translate(271.6309,203.4639)"
         id="g1038">
        <path
           inkscape:connector-curvature="0"
           id="path1040"
           style="fill:#fadf00;fill-opacity:1;fill-rule:nonzero;stroke:none"
           d="M 0,0 C 0.008,-0.142 -0.1,-0.267 -0.244,-0.274 L -2.25,-0.397 c -0.145,-0.01 -0.27,0.099 -0.275,0.243 L -3.143,9.901 c -0.007,0.144 0.102,0.266 0.245,0.275 l 2.007,0.124 c 0.143,0.008 0.268,-0.101 0.278,-0.246 z" />
      </g>
      <g
         transform="translate(274.2051,201.4736)"
         id="g1042">
        <path
           inkscape:connector-curvature="0"
           id="path1044"
           style="fill:#fadf00;fill-opacity:1;fill-rule:nonzero;stroke:none"
           d="M 0,0 C 0,-0.143 -0.115,-0.26 -0.258,-0.262 L -2.27,-0.271 c -0.144,0 -0.259,0.115 -0.259,0.258 L -2.58,10.062 c 0,0.143 0.115,0.258 0.26,0.26 l 2.009,0.01 c 0.145,0 0.26,-0.114 0.262,-0.26 z" />
      </g>
      <g
         transform="translate(281.2793,201.9951)"
         id="g1046">
        <path
           inkscape:connector-curvature="0"
           id="path1048"
           style="fill:#f1c218;fill-opacity:1;fill-rule:nonzero;stroke:none"
           d="m 0,0 c -0.035,-0.137 -0.18,-0.221 -0.316,-0.184 l -1.946,0.52 c -0.136,0.037 -0.22,0.179 -0.183,0.316 l 2.597,9.735 c 0.037,0.138 0.18,0.219 0.321,0.185 l 1.943,-0.52 C 2.555,10.015 2.637,9.872 2.6,9.735 Z" />
      </g>
      <g
         transform="translate(276.8711,202.6895)"
         id="g1050">
        <path
           inkscape:connector-curvature="0"
           id="path1052"
           style="fill:#fadf00;fill-opacity:1;fill-rule:nonzero;stroke:none"
           d="m 0,0 c 0,-0.145 -0.119,-0.259 -0.262,-0.258 l -2.011,0.029 c -0.145,0.002 -0.258,0.122 -0.258,0.265 l 0.146,10.072 c 0.002,0.145 0.119,0.257 0.264,0.257 l 2.01,-0.031 C 0.035,10.332 0.15,10.216 0.146,10.072 Z" />
      </g>
      <g
         transform="translate(279.5664,203.8838)"
         id="g1054">
        <path
           inkscape:connector-curvature="0"
           id="path1056"
           style="fill:#fadf00;fill-opacity:1;fill-rule:nonzero;stroke:none"
           d="m 0,0 c -0.002,-0.144 -0.119,-0.259 -0.264,-0.256 l -2.011,0.029 c -0.143,0.001 -0.258,0.12 -0.256,0.263 l 0.146,10.072 c 0.002,0.143 0.119,0.258 0.262,0.256 l 2.014,-0.029 c 0.142,-0.001 0.257,-0.119 0.254,-0.264 z" />
      </g>
      <g
         transform="translate(281.6445,203.6279)"
         id="g1058">
        <path
           inkscape:connector-curvature="0"
           id="path1060"
           style="fill:#fadf00;fill-opacity:1;fill-rule:nonzero;stroke:none"
           d="m 0,0 c -0.023,-0.143 -0.156,-0.238 -0.299,-0.214 l -1.986,0.322 c -0.141,0.024 -0.236,0.159 -0.213,0.3 l 1.625,9.942 c 0.021,0.14 0.156,0.238 0.297,0.214 L 1.41,10.239 C 1.553,10.215 1.648,10.083 1.625,9.941 Z" />
      </g>
      <g
         transform="translate(268.8652,207.2051)"
         id="g1062">
        <path
           inkscape:connector-curvature="0"
           id="path1064"
           style="fill:#f1c218;fill-opacity:1;fill-rule:nonzero;stroke:none"
           d="m 0,0 0.117,-1.906 -0.275,2.007 c -1.141,0.723 -2.137,1.66 -2.934,2.751 l 1.022,-7.441 c 0.019,-0.143 0.152,-0.242 0.293,-0.224 l 1.994,0.274 c 0.14,0.019 0.24,0.149 0.222,0.294 l -0.017,0.119 c 0.027,-0.01 0.06,-0.015 0.094,-0.013 l 2.005,0.123 c 0.145,0.008 0.252,0.133 0.245,0.275 L 2.605,-1.139 C 1.682,-0.878 0.807,-0.492 0,0" />
      </g>
      <g
         transform="translate(271.6504,206.0146)"
         id="g1066">
        <path
           inkscape:connector-curvature="0"
           id="path1068"
           style="fill:#f1c218;fill-opacity:1;fill-rule:nonzero;stroke:none"
           d="m 0,0 0.025,-4.554 c 0,-0.143 0.116,-0.258 0.26,-0.258 l 2.012,0.009 c 0.142,0.002 0.258,0.119 0.258,0.262 l -0.02,4.203 C 1.664,-0.332 0.812,-0.216 0,0" />
      </g>
      <g
         transform="translate(274.3398,202.7256)"
         id="g1070">
        <path
           inkscape:connector-curvature="0"
           id="path1072"
           style="fill:#f1c218;fill-opacity:1;fill-rule:nonzero;stroke:none"
           d="M 0,0 C 0,-0.144 0.113,-0.263 0.258,-0.265 L 2.27,-0.294 c 0.142,-0.001 0.261,0.113 0.261,0.258 L 2.58,3.298 C 1.768,3.082 0.916,2.961 0.045,2.951 Z" />
      </g>
      <g
         transform="translate(279.6621,207.2012)"
         id="g1074">
        <path
           inkscape:connector-curvature="0"
           id="path1076"
           style="fill:#f1c218;fill-opacity:1;fill-rule:nonzero;stroke:none"
           d="m 0,0 -0.051,-0.323 0.004,0.293 c -0.791,-0.475 -1.646,-0.847 -2.549,-1.105 l -0.031,-2.146 c -0.002,-0.144 0.113,-0.262 0.256,-0.263 l 2.012,-0.029 c 0.078,-0.003 0.148,0.032 0.199,0.087 l 1.844,-0.301 c 0.142,-0.025 0.275,0.071 0.298,0.214 L 3.014,2.733 C 2.191,1.644 1.168,0.709 0,0" />
      </g>
      <g
         transform="translate(280.2852,194.2578)"
         id="g1078">
        <path
           inkscape:connector-curvature="0"
           id="path1080"
           style="fill:#e63635;fill-opacity:1;fill-rule:nonzero;stroke:none"
           d="m 0,0 c -0.064,-0.239 -0.215,-0.476 -0.373,-0.675 -1.439,0.704 -3.881,0.817 -4.934,0.828 0,0 -0.074,0.002 -0.207,0.002 H -5.518 -5.561 -5.6 -5.604 c -0.132,0 -0.208,-0.002 -0.208,-0.002 -0.112,0 -0.239,-0.002 -0.377,-0.007 -0.141,0.005 -0.268,0.007 -0.377,0.007 0,0 -0.075,0.002 -0.209,0.002 H -6.777 -6.82 -6.863 c -0.135,0 -0.209,-0.002 -0.209,-0.002 -1.053,-0.011 -3.494,-0.124 -4.934,-0.828 -0.305,-0.15 -0.564,-0.324 -0.756,-0.531 0,0 -0.713,0.603 -0.877,1.206 l -2.179,13.369 -0.336,2.236 c -0.106,0.707 0.379,1.366 1.084,1.469 0.705,0.106 1.361,-0.379 1.466,-1.083 l 0.225,-1.493 c 0.672,-1.088 2.676,-3.698 6.559,-3.813 0.218,0.005 0.427,-0.039 0.631,-0.019 0.205,-0.02 0.414,0.024 0.628,0.019 3.926,0.117 5.932,2.78 6.579,3.843 L 1.215,15.8 c 0.111,0.705 0.771,1.187 1.473,1.079 0.025,-0.005 0.048,-0.01 0.072,-0.014" />
      </g>
      <g
         transform="translate(280.2852,194.2578)"
         id="g1082">
        <path
           inkscape:connector-curvature="0"
           id="path1084"
           style="fill:#bd2030;fill-opacity:1;fill-rule:nonzero;stroke:none"
           d="m 0,0 c -0.064,-0.239 -0.215,-0.476 -0.373,-0.675 0.307,-0.15 0.564,-0.324 0.756,-0.531 0,0 0.713,0.603 0.877,1.206 0.119,0.437 1.394,8.514 2.086,12.9 0.033,0.086 0.058,0.175 0.074,0.269 l 0.348,2.235 c 0.011,0.088 0.015,0.176 0.011,0.262 0.002,0.01 0.004,0.017 0.004,0.017 H 3.779 C 3.744,16.251 3.334,16.741 2.76,16.865 Z" />
      </g>
      <g
         transform="translate(267.3594,212.6758)"
         id="g1086">
        <path
           inkscape:connector-curvature="0"
           id="path1088"
           style="fill:#fcf4a8;fill-opacity:1;fill-rule:nonzero;stroke:none"
           d="m 0,0 c 0.016,-0.13 -0.076,-0.249 -0.207,-0.267 l -1.256,-0.16 c -0.129,-0.015 -0.25,0.077 -0.266,0.206 -0.015,0.131 0.077,0.25 0.206,0.268 l 1.255,0.159 C -0.137,0.223 -0.02,0.13 0,0" />
      </g>
      <g
         transform="translate(265.8496,214.3555)"
         id="g1090">
        <path
           inkscape:connector-curvature="0"
           id="path1092"
           style="fill:#fadf00;fill-opacity:1;fill-rule:nonzero;stroke:none"
           d="m 0,0 c 0.025,-0.13 -0.057,-0.255 -0.186,-0.279 l -1.24,-0.253 c -0.131,-0.025 -0.256,0.059 -0.281,0.187 -0.025,0.129 0.057,0.256 0.186,0.281 l 1.24,0.251 C -0.15,0.213 -0.025,0.129 0,0" />
      </g>
      <g
         transform="translate(268.373,215.6094)"
         id="g1094">
        <path
           inkscape:connector-curvature="0"
           id="path1096"
           style="fill:#fadf00;fill-opacity:1;fill-rule:nonzero;stroke:none"
           d="M 0,0 C 0.002,-0.133 -0.104,-0.24 -0.234,-0.242 L -1.5,-0.26 c -0.131,-0.002 -0.24,0.104 -0.242,0.237 -0.002,0.13 0.105,0.236 0.236,0.241 L -0.24,0.233 C -0.109,0.234 -0.002,0.13 0,0" />
      </g>
      <g
         transform="translate(269.6426,213.2539)"
         id="g1098">
        <path
           inkscape:connector-curvature="0"
           id="path1100"
           style="fill:#fcf4a8;fill-opacity:1;fill-rule:nonzero;stroke:none"
           d="M 0,0 C 0.008,-0.13 -0.096,-0.241 -0.225,-0.247 L -0.68,-0.279 c -0.131,-0.005 -0.242,0.095 -0.252,0.226 -0.004,0.133 0.098,0.243 0.229,0.249 L -0.25,0.228 C -0.117,0.233 -0.006,0.131 0,0" />
      </g>
      <g
         transform="translate(273.8086,204.251)"
         id="g1102">
        <path
           inkscape:connector-curvature="0"
           id="path1104"
           style="fill:#ef4a53;fill-opacity:1;fill-rule:nonzero;stroke:none"
           d="m 0,0 c -5.584,0 -7.727,4.375 -7.746,4.419 -0.08,0.167 -0.01,0.369 0.158,0.448 0.168,0.078 0.369,0.008 0.447,-0.16 0.082,-0.165 1.995,-4.034 7.137,-4.034 h 0.1 0.002 C 0.283,0.673 0.434,0.525 0.437,0.34 0.437,0.155 0.289,0.003 0.104,0 Z" />
      </g>
      <g
         transform="translate(272.293,211.3135)"
         id="g1106">
        <path
           inkscape:connector-curvature="0"
           id="path1108"
           style="fill:#fcf4a8;fill-opacity:1;fill-rule:nonzero;stroke:none"
           d="m 0,0 c 0,-0.105 -0.088,-0.19 -0.191,-0.19 -0.108,0 -0.194,0.085 -0.194,0.19 0,0.105 0.086,0.192 0.194,0.192 C -0.088,0.192 0,0.105 0,0" />
      </g>
    </g>
  </g>
</svg>
