<?xml version="1.0" encoding="UTF-8" standalone="no"?>
<!-- Created with Inkscape (http://www.inkscape.org/) -->

<svg
   xmlns:dc="http://purl.org/dc/elements/1.1/"
   xmlns:cc="http://creativecommons.org/ns#"
   xmlns:rdf="http://www.w3.org/1999/02/22-rdf-syntax-ns#"
   xmlns:svg="http://www.w3.org/2000/svg"
   xmlns="http://www.w3.org/2000/svg"
   xmlns:sodipodi="http://sodipodi.sourceforge.net/DTD/sodipodi-0.dtd"
   xmlns:inkscape="http://www.inkscape.org/namespaces/inkscape"
   width="11.005993mm"
   height="9.0659084mm"
   viewBox="0 0 11.005993 9.0659071"
   version="1.1"
   id="svg5889"
   inkscape:version="0.92.3 (2405546, 2018-03-11)"
   sodipodi:docname="lemon-lima.svg">
  <defs
     id="defs5883" />
  <sodipodi:namedview
     id="base"
     pagecolor="#ffffff"
     bordercolor="#666666"
     borderopacity="1.0"
     inkscape:pageopacity="0.0"
     inkscape:pageshadow="2"
     inkscape:zoom="3.06"
     inkscape:cx="104.95063"
     inkscape:cy="4.9433563"
     inkscape:document-units="mm"
     inkscape:current-layer="layer1"
     showgrid="false"
     fit-margin-top="1"
     fit-margin-bottom="1"
     fit-margin-right="1"
     fit-margin-left="1"
     inkscape:window-width="1853"
     inkscape:window-height="1025"
     inkscape:window-x="67"
     inkscape:window-y="27"
     inkscape:window-maximized="1" />
  <metadata
     id="metadata5886">
    <rdf:RDF>
      <cc:Work
         rdf:about="">
        <dc:format>image/svg+xml</dc:format>
        <dc:type
           rdf:resource="http://purl.org/dc/dcmitype/StillImage" />
        <dc:title></dc:title>
      </cc:Work>
    </rdf:RDF>
  </metadata>
  <g
     inkscape:label="Capa 1"
     inkscape:groupmode="layer"
     id="layer1"
     transform="translate(-78.065148,-113.70467)">
    <g
       transform="matrix(0.35277777,0,0,-0.35277777,67.668062,227.10438)"
       id="g7843">
      <g
         transform="translate(40.709,314.0684)"
         id="g2652">
        <path
           inkscape:connector-curvature="0"
           id="path2654"
           style="fill:#71a241;fill-opacity:1;fill-rule:nonzero;stroke:none"
           d="M 0,0 C -0.21,0.744 -0.911,1.22 -1.541,1.044 -1.665,1.011 -1.789,0.975 -1.913,0.937 -1.762,1.215 -1.729,1.565 -1.856,1.912 -2.09,2.548 -2.789,2.863 -3.396,2.603 -3.519,2.553 -3.64,2.499 -3.762,2.446 -3.42,2.713 -3.279,3.165 -3.457,3.56 -3.669,4.032 -4.264,4.196 -4.772,3.919 -4.97,3.812 -5.167,3.702 -5.363,3.589 -5.244,3.806 -5.223,4.05 -5.332,4.25 -5.517,4.593 -6.012,4.645 -6.428,4.363 -6.495,4.317 -6.562,4.271 -6.629,4.226 -7.042,3.938 -7.22,3.461 -7.033,3.165 -6.923,2.991 -6.712,2.906 -6.475,2.915 -6.614,2.826 -6.752,2.737 -6.89,2.645 -7.379,2.315 -7.586,1.755 -7.364,1.397 -7.177,1.098 -6.748,1.004 -6.327,1.143 -6.492,1.046 -6.657,0.949 -6.82,0.849 -7.399,0.488 -7.643,-0.166 -7.38,-0.608 c 0.144,-0.242 0.409,-0.389 0.711,-0.429 -0.014,-0.009 -0.029,-0.016 -0.044,-0.024 -0.599,-0.335 -0.852,-1.004 -0.579,-1.487 0.274,-0.484 0.967,-0.673 1.555,-0.429 1.655,0.706 3.332,1.206 5.023,1.477 C -0.116,-1.409 0.211,-0.745 0,0" />
      </g>
      <g
         transform="translate(50.5493,316.5054)"
         id="g2656">
        <path
           inkscape:connector-curvature="0"
           id="path2658"
           style="fill:#71a241;fill-opacity:1;fill-rule:nonzero;stroke:none"
           d="m 0,0 c -1.165,0.196 -1.743,-0.556 -1.979,-1.001 -0.099,0.023 -0.2,0.037 -0.306,0.037 -0.552,0 -1.027,-0.341 -1.222,-0.824 -0.142,0.051 -0.294,0.081 -0.454,0.081 -0.557,0 -1.034,-0.347 -1.226,-0.836 -0.164,0.056 -0.337,0.086 -0.519,0.086 -0.893,0 -1.618,-0.725 -1.618,-1.618 0,-0.098 0.011,-0.195 0.027,-0.288 l -0.388,-0.229 0.935,-1.4 c 0,0 4.271,-0.206 5.487,0.161 1.218,0.368 2.034,2.693 2.034,2.693 0.841,0.511 0.377,1.44 0.561,1.829 0.183,0.391 0.619,0.345 0.619,0.345 C 1.24,-0.207 0,0 0,0" />
      </g>
      <g
         transform="translate(54.3535,311.2202)"
         id="g2660">
        <path
           inkscape:connector-curvature="0"
           id="path2662"
           style="fill:#71a241;fill-opacity:1;fill-rule:nonzero;stroke:none"
           d="m 0,0 3.482,3.839 c 0,0 -1.5,0.5 -2.438,-0.438 0,0 -2.249,1.062 -2.999,-1.125 0,0 -3.503,0.755 -4.002,-2.841 C -6.456,-4.162 0,0 0,0" />
      </g>
      <g
         transform="translate(51.958,311.147)"
         id="g2664">
        <path
           inkscape:connector-curvature="0"
           id="path2666"
           style="fill:#5a8c3e;fill-opacity:1;fill-rule:nonzero;stroke:none"
           d="m 0,0 2.634,3.71 c 0,0 -1.359,0.28 -2.08,-0.635 0,0 -2.072,0.691 -2.497,-1.294 0,0 -3.134,0.292 -3.193,-2.896 C -5.195,-4.303 0,0 0,0" />
      </g>
      <g
         transform="translate(54.3535,310.0493)"
         id="g2668">
        <path
           inkscape:connector-curvature="0"
           id="path2670"
           style="fill:#ed1c56;fill-opacity:1;fill-rule:nonzero;stroke:none"
           d="m 0,0 c 0,-1.646 -1.333,-2.979 -2.979,-2.979 -1.645,0 -2.978,1.333 -2.978,2.979 0,1.645 1.333,2.979 2.978,2.979 C -1.333,2.979 0,1.645 0,0" />
      </g>
      <g
         transform="translate(42.3682,314.8223)"
         id="g2672">
        <path
           inkscape:connector-curvature="0"
           id="path2674"
           style="fill:#71a241;fill-opacity:1;fill-rule:nonzero;stroke:none"
           d="M 0,0 C -1.625,-2.514 -1.389,-4.104 -1.156,-4.761 L -1.55,-5.37 -1.276,-5.548 4.254,3 C 4.254,3 2.287,3.535 0,0" />
      </g>
      <g
         transform="translate(46.6221,317.8228)"
         id="g2676">
        <path
           inkscape:connector-curvature="0"
           id="path2678"
           style="fill:#5a8c3e;fill-opacity:1;fill-rule:nonzero;stroke:none"
           d="m 0,0 -5.53,-8.548 0.274,-0.177 0.41,0.634 c 0.721,0.095 2.306,0.59 3.853,2.982 C 1.312,-1.548 0,0 0,0" />
      </g>
      <g
         transform="translate(43.7026,310.4551)"
         id="g2680">
        <path
           inkscape:connector-curvature="0"
           id="path2682"
           style="fill:#ed1c56;fill-opacity:1;fill-rule:nonzero;stroke:none"
           d="m 0,0 c 0,-1.87 -1.516,-3.385 -3.386,-3.385 -1.869,0 -3.385,1.515 -3.385,3.385 0,1.869 1.516,3.385 3.385,3.385 C -1.516,3.385 0,1.869 0,0" />
      </g>
      <g
         transform="translate(56.8911,311.731)"
         id="g2684">
        <path
           inkscape:connector-curvature="0"
           id="path2686"
           style="fill:#3498b6;fill-opacity:1;fill-rule:nonzero;stroke:none"
           d="m 0,0 h -6.033 l 0.112,-1.012 v -5.886 c 0,-3.452 -2.799,-6.249 -6.25,-6.249 h 5.766 c 3.451,0 6.25,2.797 6.25,6.249 v 5.886 H 0 c 0.273,0 0.495,0.227 0.495,0.505 C 0.495,-0.227 0.273,0 0,0" />
      </g>
      <g
         transform="translate(50.9697,304.833)"
         id="g2688">
        <path
           inkscape:connector-curvature="0"
           id="path2690"
           style="fill:#41b4cf;fill-opacity:1;fill-rule:nonzero;stroke:none"
           d="m 0,0 v 5.886 l -0.111,1.012 h -18.057 c -0.273,0 -0.495,-0.227 -0.495,-0.507 0,-0.278 0.222,-0.505 0.495,-0.505 h 0.155 V 0 c 0,-3.452 2.799,-6.249 6.25,-6.249 H -6.25 C -2.798,-6.249 0,-3.452 0,0" />
      </g>
      <path
         inkscape:connector-curvature="0"
         id="path2692"
         style="fill:#ffffff;fill-opacity:1;fill-rule:nonzero;stroke:none"
         d="M 56.736,309.191 H 32.957 v 0.75 h 23.779 z" />
      <path
         inkscape:connector-curvature="0"
         id="path2694"
         style="fill:#ffffff;fill-opacity:1;fill-rule:nonzero;stroke:none"
         d="M 56.736,306.481 H 32.957 v 1.501 h 23.779 z" />
      <g
         transform="translate(37.6182,311.1655)"
         id="g2696">
        <path
           inkscape:connector-curvature="0"
           id="path2698"
           style="fill:#6ecbdd;fill-opacity:1;fill-rule:nonzero;stroke:none"
           d="m 0,0 c 0,-0.312 -0.253,-0.565 -0.565,-0.565 h -2.706 c -0.312,0 -0.564,0.253 -0.564,0.565 0,0.311 0.252,0.565 0.564,0.565 h 2.706 C -0.253,0.565 0,0.311 0,0" />
      </g>
    </g>
  </g>
</svg>
