<?xml version="1.0" encoding="UTF-8" standalone="no"?>
<!-- Created with Inkscape (http://www.inkscape.org/) -->

<svg
   xmlns:dc="http://purl.org/dc/elements/1.1/"
   xmlns:cc="http://creativecommons.org/ns#"
   xmlns:rdf="http://www.w3.org/1999/02/22-rdf-syntax-ns#"
   xmlns:svg="http://www.w3.org/2000/svg"
   xmlns="http://www.w3.org/2000/svg"
   xmlns:sodipodi="http://sodipodi.sourceforge.net/DTD/sodipodi-0.dtd"
   xmlns:inkscape="http://www.inkscape.org/namespaces/inkscape"
   width="10.063454mm"
   height="8.4134731mm"
   viewBox="0 0 10.063454 8.4134719"
   version="1.1"
   id="svg5889"
   inkscape:version="0.92.3 (2405546, 2018-03-11)"
   sodipodi:docname="cheese_food.svg">
  <defs
     id="defs5883" />
  <sodipodi:namedview
     id="base"
     pagecolor="#ffffff"
     bordercolor="#666666"
     borderopacity="1.0"
     inkscape:pageopacity="0.0"
     inkscape:pageshadow="2"
     inkscape:zoom="3.06"
     inkscape:cx="93.932401"
     inkscape:cy="5.3365714"
     inkscape:document-units="mm"
     inkscape:current-layer="layer1"
     showgrid="false"
     fit-margin-top="1"
     fit-margin-bottom="1"
     fit-margin-right="1"
     fit-margin-left="1"
     inkscape:window-width="1853"
     inkscape:window-height="1025"
     inkscape:window-x="67"
     inkscape:window-y="27"
     inkscape:window-maximized="1" />
  <metadata
     id="metadata5886">
    <rdf:RDF>
      <cc:Work
         rdf:about="">
        <dc:format>image/svg+xml</dc:format>
        <dc:type
           rdf:resource="http://purl.org/dc/dcmitype/StillImage" />
        <dc:title></dc:title>
      </cc:Work>
    </rdf:RDF>
  </metadata>
  <g
     inkscape:label="Capa 1"
     inkscape:groupmode="layer"
     id="layer1"
     transform="translate(-80.980386,-114.46115)">
    <g
       transform="matrix(0.35277777,0,0,-0.35277777,-42.959624,243.04178)"
       id="g7353">
      <g
         transform="translate(377.0176,350.2329)"
         id="g708">
        <path
           inkscape:connector-curvature="0"
           id="path710"
           style="fill:#f5cb46;fill-opacity:1;fill-rule:nonzero;stroke:none"
           d="M 0,0 V 4.155 L -10.172,8.834 C -10.586,8.73 -11.057,8.67 -11.557,8.67 c -1.615,0 -2.922,0.614 -2.922,1.372 0,0.225 0.116,0.438 0.321,0.625 l -1.617,0.746 c 0,0 -6.286,-0.36 -7.077,-3.947 0,0 -0.011,-0.071 0,-0.168 V -3.838 c 0,0 -0.08,-2.907 2.582,-2.907 h 6.098 5.473 7.566 c 0,0 1.133,-0.243 1.133,0.889 v 3.35 c -0.584,0.119 -1.025,0.634 -1.025,1.253 0,0.619 0.441,1.135 1.025,1.253" />
      </g>
      <g
         transform="translate(372.3086,345.145)"
         id="g712">
        <path
           inkscape:connector-curvature="0"
           id="path714"
           style="fill:#fbde77;fill-opacity:1;fill-rule:nonzero;stroke:none"
           d="M 0,0 C -0.486,0 -0.881,0.395 -0.881,0.883 -0.881,1.37 -0.486,1.765 0,1.765 0.488,1.765 0.883,1.37 0.883,0.883 0.883,0.395 0.488,0 0,0 m -12.723,3.531 c -1.295,0 -2.345,1.049 -2.345,2.343 0,1.295 1.05,2.344 2.345,2.344 1.293,0 2.344,-1.049 2.344,-2.344 0,-1.294 -1.051,-2.343 -2.344,-2.343 M 3.684,3.835 c 0,0.619 0.441,1.135 1.025,1.253 v 4.155 l -7.666,0.861 c -0.049,-0.847 -0.748,-1.52 -1.607,-1.52 -0.893,0 -1.614,0.722 -1.614,1.613 0,0.092 0.008,0.18 0.024,0.267 l -10.498,1.179 c 0,0 -0.641,0.137 -1.061,0.261 -0.322,0.095 -0.408,0.323 -0.43,0.482 V 1.25 c 0,0 -0.08,-2.907 2.582,-2.907 h 6.098 c -0.002,0.044 -0.002,0.09 -0.002,0.135 0,1.513 1.227,2.739 2.738,2.739 1.514,0 2.741,-1.226 2.741,-2.739 0,-0.045 -0.004,-0.091 -0.004,-0.135 h 7.566 c 0,0 1.133,-0.243 1.133,0.888 V 2.582 C 4.125,2.701 3.684,3.216 3.684,3.835" />
      </g>
      <g
         transform="translate(354.166,357.5312)"
         id="g716">
        <path
           inkscape:connector-curvature="0"
           id="path718"
           style="fill:#f5cb46;fill-opacity:1;fill-rule:nonzero;stroke:none"
           d="M 0,0 V 0.167 C 0,0.167 -0.012,0.097 0,0" />
      </g>
      <g
         transform="translate(354.5957,357.0488)"
         id="g720">
        <path
           inkscape:connector-curvature="0"
           id="path722"
           style="fill:#edae4b;fill-opacity:1;fill-rule:nonzero;stroke:none"
           d="M 0,0 C 0.42,-0.124 1.061,-0.261 1.061,-0.261 L 11.559,-1.44 c 0.127,0.764 0.791,1.346 1.589,1.346 0.891,0 1.614,-0.722 1.614,-1.613 0,-0.031 -0.004,-0.061 -0.006,-0.093 L 22.422,-2.661 12.25,2.019 C 11.836,1.914 11.365,1.854 10.865,1.854 c -1.615,0 -2.922,0.614 -2.922,1.372 0,0.225 0.116,0.439 0.321,0.625 L 6.646,4.597 c 0,0 -6.285,-0.36 -7.076,-3.947 V 0.482 C -0.408,0.323 -0.322,0.095 0,0" />
      </g>
      <g
         transform="translate(359.5859,353.3633)"
         id="g724">
        <path
           inkscape:connector-curvature="0"
           id="path726"
           style="fill:#edae4b;fill-opacity:1;fill-rule:nonzero;stroke:none"
           d="m 0,0 c -1.295,0 -2.346,-1.049 -2.346,-2.344 0,-1.294 1.051,-2.343 2.346,-2.343 1.293,0 2.344,1.049 2.344,2.343 C 2.344,-1.049 1.293,0 0,0" />
      </g>
      <g
         transform="translate(366.1309,355.3418)"
         id="g728">
        <path
           inkscape:connector-curvature="0"
           id="path730"
           style="fill:#f3c34d;fill-opacity:1;fill-rule:nonzero;stroke:none"
           d="m 0,0 c 0,-0.891 0.721,-1.613 1.613,-1.613 0.86,0 1.559,0.674 1.608,1.52 L 0.023,0.267 C 0.008,0.18 0,0.092 0,0" />
      </g>
      <g
         transform="translate(367.7441,356.9551)"
         id="g732">
        <path
           inkscape:connector-curvature="0"
           id="path734"
           style="fill:#f3c34d;fill-opacity:1;fill-rule:nonzero;stroke:none"
           d="m 0,0 c -0.799,0 -1.463,-0.582 -1.59,-1.346 l 3.197,-0.36 c 0.002,0.032 0.006,0.062 0.006,0.093 C 1.613,-0.722 0.891,0 0,0" />
      </g>
      <g
         transform="translate(365.582,346.3623)"
         id="g736">
        <path
           inkscape:connector-curvature="0"
           id="path738"
           style="fill:#edae4b;fill-opacity:1;fill-rule:nonzero;stroke:none"
           d="m 0,0 c -1.512,0 -2.738,-1.227 -2.738,-2.739 0,-0.045 0,-0.091 0.002,-0.135 h 5.472 c 0,0.044 0.004,0.09 0.004,0.135 C 2.74,-1.227 1.514,0 0,0" />
      </g>
      <g
         transform="translate(372.3086,346.9102)"
         id="g740">
        <path
           inkscape:connector-curvature="0"
           id="path742"
           style="fill:#f5cb46;fill-opacity:1;fill-rule:nonzero;stroke:none"
           d="m 0,0 c -0.486,0 -0.881,-0.395 -0.881,-0.882 0,-0.489 0.395,-0.883 0.881,-0.883 0.488,0 0.883,0.394 0.883,0.883 C 0.883,-0.395 0.488,0 0,0" />
      </g>
    </g>
  </g>
</svg>
